<svg width="328" height="344" viewBox="0 0 328 344" fill="none" xmlns="http://www.w3.org/2000/svg">
<path d="M129.905 234.755C129.368 234.259 124.837 231.409 119.836 228.422C114.311 225.122 110.312 222.99 109.645 222.99C109.042 222.99 108.129 223.283 107.618 223.642C106.177 224.65 92.182 241.905 91.7125 243.252C91.4457 244.017 91.437 244.818 91.6884 245.479C92.2513 246.96 117.879 272.683 119.339 273.234C120.174 273.549 120.924 273.561 121.747 273.274C123.095 272.805 140.356 258.816 141.365 257.376C141.724 256.864 142.017 255.952 142.017 255.349C142.017 254.117 131.493 236.222 129.905 234.755Z" fill="#0D1018"/>
<path d="M201.846 124.515C199.676 126.371 196.928 128.148 196.928 128.148C196.928 128.148 169.53 151.919 145.868 171.906C122.206 191.893 102.104 209.176 101.197 210.313C99.3278 212.656 92.9901 225.024 92.9901 226.328C92.9901 227.406 94.17 229.732 94.6283 229.558C94.8169 229.486 96.8603 227.143 99.1691 224.351C103.764 218.794 105.321 217.673 108.968 217.297C110.612 217.127 111.595 217.28 113.074 217.934C116.813 219.587 132.589 229.351 134.196 231.006C135.855 232.715 145.525 248.419 147.075 251.921C147.729 253.399 147.882 254.383 147.712 256.026C147.336 259.672 146.215 261.227 140.655 265.821C137.862 268.129 135.518 270.171 135.447 270.36C135.272 270.818 137.6 271.997 138.678 271.997C139.902 271.997 151.788 265.987 154.343 264.076C155.756 263.019 171.655 244.56 200.877 210.05C225.29 181.218 245.685 157.067 246.199 156.38C246.764 155.626 247.134 154.541 247.134 153.637C247.134 152.815 245.918 146.08 244.431 138.67C242.162 127.362 241.577 125.047 240.788 124.258C239.999 123.47 237.684 122.885 226.371 120.617C218.958 119.131 212.2 117.915 211.354 117.915C209.679 117.915 209.088 118.325 201.846 124.515Z" fill="#0D1018"/>
<path fill-rule="evenodd" clip-rule="evenodd" d="M209.741 112.115C208.941 112.254 207.704 112.674 206.991 113.047C205.519 113.819 193.822 124.004 193.822 124.004L196.928 128.148C196.928 128.148 199.676 126.371 201.846 124.515C209.088 118.325 209.679 117.915 211.354 117.915C212.2 117.915 218.958 119.131 226.371 120.617C237.684 122.885 239.999 123.47 240.788 124.258C241.577 125.047 242.162 127.362 244.431 138.67C245.918 146.08 247.134 152.816 247.134 153.637C247.134 154.541 246.764 155.626 246.199 156.38C245.685 157.067 225.29 181.218 200.877 210.05C171.655 244.56 155.756 263.019 154.343 264.076C151.788 265.987 139.902 271.997 138.678 271.997C137.6 271.997 135.272 270.818 135.447 270.36C135.518 270.171 137.862 268.129 140.655 265.821C146.215 261.227 147.336 259.672 147.712 256.026C147.882 254.383 147.729 253.4 147.075 251.921C145.525 248.419 135.855 232.715 134.196 231.006C132.589 229.351 116.813 219.587 113.074 217.934C111.595 217.28 110.612 217.128 108.968 217.297C105.321 217.673 103.764 218.794 99.1691 224.351C96.8603 227.143 94.8169 229.486 94.6283 229.558C94.17 229.732 92.9901 227.406 92.9901 226.328C92.9901 225.024 99.3279 212.656 101.197 210.313C102.104 209.176 122.206 191.893 145.868 171.906C169.53 151.919 196.928 128.148 196.928 128.148L193.822 124.004C193.822 124.004 98.4154 204.443 96.6081 206.697C94.3736 209.483 87.6358 222.947 87.3187 225.258C86.9706 227.797 87.7953 230.487 89.549 232.535L90.9953 234.224L89.8112 235.717C87.0532 239.196 86.371 240.331 85.9098 242.21C85.1478 245.315 86.0241 248.449 88.3491 250.933L89.4298 252.087L71.8021 269.711C56.6503 284.86 54.0407 287.302 53.2209 287.097C50.9819 286.535 49.3785 287.332 45.7588 290.806C43.8156 292.67 41.9468 294.735 41.6057 295.395C40.8948 296.769 40.7855 299.801 41.4067 300.928C41.6381 301.349 46.8503 306.692 52.9887 312.802C64.6953 324.455 64.355 324.197 67.6456 323.915C69.3404 323.769 70.5968 322.896 73.7308 319.685C77.2657 316.064 78.2039 314.403 77.9176 312.27L77.7111 310.732L95.3097 293.144L112.908 275.556L114.063 276.636C117.525 279.875 122.474 280.208 126.272 277.46C127.11 276.854 128.466 275.826 129.286 275.175L130.778 273.991L132.468 275.437C134.517 277.19 137.208 278.014 139.748 277.666C142.228 277.327 155.687 270.51 158.491 268.174C161.32 265.816 158.331 269.293 207.787 210.841C231.704 182.573 251.664 158.679 252.142 157.743C252.697 156.655 253.007 155.27 253 153.902C252.994 152.726 251.692 145.356 250.107 137.525C246.951 121.93 246.633 121.046 243.408 118.913C242.067 118.026 239.345 117.338 228.558 115.162C212.763 111.975 211.614 111.789 209.741 112.115ZM149.416 113.243C149.072 113.643 148.653 114.212 148.483 114.509C148.148 115.095 151.829 129.395 152.551 130.314C153.827 131.938 156.989 131.462 157.594 129.556C157.901 128.589 154.343 114.87 153.421 113.463C152.652 112.289 150.344 112.162 149.416 113.243ZM212.085 127.245C211.204 127.559 209.708 128.436 208.761 129.194C206.424 131.067 146.414 181.903 146.414 181.903L148.491 186.858C148.491 186.858 158.768 178.988 181.164 160.034C198.595 145.281 213.324 133.025 213.896 132.799C214.67 132.492 216.413 132.674 220.751 133.515C228.061 134.934 229.144 135.362 229.848 137.109C230.151 137.859 230.907 141.09 231.528 144.288C232.369 148.62 232.552 150.367 232.245 151.141C231.727 152.448 157.417 240.226 156.828 240.226C156.59 240.226 154.114 236.394 151.326 231.712C147.869 225.904 145.55 222.491 144.033 220.975C142.516 219.458 139.102 217.14 133.292 213.685C128.607 210.898 124.774 208.424 124.774 208.186C124.774 207.949 128.482 204.617 133.013 200.784C137.544 196.95 148.491 186.858 148.491 186.858L147.452 184.38L146.414 181.903C146.414 181.903 120.8 203.462 119.648 205.156C118.865 206.308 118.712 206.974 118.863 208.589C118.965 209.691 119.417 211.093 119.866 211.704C120.316 212.315 124.83 215.338 129.898 218.422C134.967 221.505 139.533 224.448 140.046 224.96C140.559 225.473 143.502 230.038 146.587 235.104C149.68 240.183 152.723 244.702 153.369 245.178C154.989 246.368 158.537 246.372 160.164 245.184C161.648 244.101 235.595 156.926 236.971 154.637C238.608 151.914 238.619 150.063 237.046 142.362C234.756 131.155 233.859 130.248 222.852 128.022C215.36 126.507 214.357 126.435 212.085 127.245ZM105.877 138.559C105.265 139.336 105.069 140.009 105.242 140.74C105.383 141.339 107.881 144.179 111.008 147.299C117.044 153.32 117.856 153.733 119.807 151.782C121.597 149.993 121.244 149.343 115.134 143.179C110.161 138.162 109.27 137.435 108.101 137.435C107.14 137.435 106.512 137.753 105.877 138.559ZM80.9714 181.722C80.4978 182.324 80.1101 182.969 80.1101 183.156C80.1101 184.116 81.1758 185.606 82.1377 185.991C83.9691 186.724 95.6305 189.759 96.6255 189.762C98.8621 189.769 100.069 186.506 98.3914 184.989C97.4694 184.155 85.2338 180.665 83.1527 180.642C82.2104 180.632 81.5855 180.941 80.9714 181.722ZM235.18 207.486C234.89 207.603 234.376 208.232 234.039 208.884C233.385 210.148 233.671 211.629 234.73 212.46C235.04 212.703 238.629 213.794 242.706 214.884L250.119 216.866L251.223 216.045C252.765 214.899 252.977 212.5 251.615 211.608C250.719 211.022 237.055 207.17 236.124 207.242C235.895 207.259 235.471 207.369 235.18 207.486ZM119.836 228.422C124.837 231.409 129.368 234.259 129.905 234.755C131.493 236.222 142.017 254.117 142.017 255.349C142.017 255.952 141.724 256.864 141.365 257.376C140.356 258.816 123.095 272.805 121.747 273.274C120.924 273.561 120.174 273.549 119.339 273.234C117.879 272.683 92.2513 246.96 91.6884 245.479C91.437 244.818 91.4457 244.017 91.7125 243.252C92.182 241.905 106.177 224.65 107.618 223.642C108.129 223.283 109.042 222.99 109.645 222.99C110.312 222.99 114.311 225.122 119.836 228.422ZM113.556 233.813C112.836 234.024 110.675 235.822 108.436 238.071C105.095 241.428 104.531 242.198 104.334 243.666C104.208 244.601 104.237 245.892 104.398 246.534C104.721 247.826 115.712 259.21 117.587 260.194C118.919 260.894 121.149 260.957 122.774 260.339C124.686 259.613 130.714 253.091 131.224 251.195C132.055 248.113 131.414 247.049 124.674 240.329C117.758 233.431 116.792 232.865 113.556 233.813ZM120.626 244.442L125.871 249.697L123.258 252.333C121.82 253.783 120.454 254.969 120.222 254.969C119.678 254.969 110.025 245.354 110.025 244.812C110.025 244.477 114.974 239.187 115.287 239.187C115.338 239.187 117.741 241.552 120.626 244.442ZM213.254 245.191C211.323 247.12 211.737 247.959 217.484 253.765C223.454 259.797 224.59 260.504 226.283 259.246C227.041 258.683 227.438 257.965 227.522 257.004C227.636 255.685 227.262 255.213 221.879 249.881C215.693 243.754 215.044 243.401 213.254 245.191ZM107.627 272.592C107.003 273.277 105.746 274.543 104.833 275.407L103.174 276.977L95.5922 269.407L88.0105 261.837L90.8042 259.022L93.5979 256.208L101.179 263.778L108.76 271.348L107.627 272.592ZM176.087 266.598C174.954 267.73 175.015 268.377 176.928 275.528C179.045 283.437 179.226 283.864 180.719 284.483C181.796 284.929 182.101 284.887 183.073 284.166C183.701 283.698 184.247 282.84 184.324 282.2C184.513 280.604 181.084 267.971 180.134 266.764C179.157 265.523 177.241 265.444 176.087 266.598ZM91.4279 273.551C95.4863 277.602 98.8056 281.107 98.8039 281.338C98.8006 281.845 94.0595 286.533 93.5497 286.533C93.3515 286.533 89.8295 283.171 85.7229 279.061L78.2566 271.59L80.9373 268.886C82.4115 267.399 83.7148 266.183 83.8333 266.183C83.9517 266.183 87.3694 269.498 91.4279 273.551ZM86.5489 293.792L83.6417 296.483L76.0621 288.92L68.4828 281.356L71.2778 278.541L74.0732 275.725L81.7646 283.414L89.4556 291.102L86.5489 293.792ZM71.9816 293.152C80.3594 301.536 79.9024 300.386 76.3226 304.076C75.2677 305.164 74.2373 306.053 74.0329 306.053C73.8284 306.053 70.3018 302.691 66.1952 298.581L58.729 291.11L61.4097 288.406C62.8838 286.919 64.1909 285.703 64.3143 285.703C64.4373 285.703 67.8879 289.055 71.9816 293.152ZM69.6271 315.495C68.2078 316.926 66.8554 318.097 66.6223 318.097C66.0784 318.097 46.8715 298.927 46.8715 298.384C46.8715 298.16 48.0365 296.802 49.4608 295.365L52.0501 292.754L62.1289 302.823L72.2081 312.892L69.6271 315.495Z" fill="#20222B"/>
<path d="M181.164 160.034C158.768 178.988 148.491 186.858 148.491 186.858L133.013 200.784C128.482 204.617 124.774 207.949 124.774 208.186C124.774 208.424 128.607 210.898 133.292 213.685C137.944 216.382 140.321 217.969 144.033 220.975C145.55 222.491 147.869 225.904 151.326 231.712C154.114 236.394 156.59 240.226 156.828 240.226C157.417 240.226 231.727 152.448 232.245 151.141C232.552 150.367 232.369 148.62 231.528 144.288L229.848 137.109C229.144 135.362 228.061 134.934 220.751 133.515C216.413 132.674 214.67 132.492 213.895 132.799L181.164 160.034Z" fill="#DA8433"/>
<path d="M104.833 275.407C105.746 274.543 107.003 273.276 107.627 272.592L108.76 271.348L101.179 263.778L93.5979 256.208L90.8042 259.022L88.0105 261.837L95.5923 269.407L103.174 276.977L104.833 275.407Z" fill="#0D1018"/>
<path d="M98.8039 281.338C98.8056 281.107 95.4863 277.602 91.4279 273.551C87.3694 269.498 83.9517 266.183 83.8333 266.183C83.7149 266.183 82.4115 267.399 80.9374 268.886L78.2567 271.59L85.7229 279.061C89.8295 283.171 93.3516 286.533 93.5497 286.533C94.0595 286.533 98.8006 281.845 98.8039 281.338Z" fill="#0D1018"/>
<path d="M83.6417 296.483L86.5489 293.792L89.4556 291.102L81.7646 283.413L74.0732 275.725L71.2778 278.541L68.4828 281.356L76.0621 288.92L83.6417 296.483Z" fill="#0D1018"/>
<path d="M76.3226 304.076C79.9024 300.386 80.3594 301.536 71.9816 293.152C67.8879 289.055 64.4373 285.703 64.3143 285.703C64.1909 285.703 62.8838 286.919 61.4097 288.406L58.729 291.11L66.1952 298.581C70.3018 302.691 73.8284 306.053 74.0329 306.053C74.2373 306.053 75.2677 305.164 76.3226 304.076Z" fill="#0D1018"/>
<path d="M125.871 249.697L120.626 244.442C117.741 241.552 115.338 239.187 115.287 239.187C114.974 239.187 110.025 244.477 110.025 244.812C110.025 245.354 119.678 254.969 120.222 254.969C120.454 254.969 121.82 253.783 123.258 252.333L125.871 249.697Z" fill="#DA8433"/>
<path d="M66.6223 318.097C66.8554 318.097 68.2078 316.926 69.6271 315.495L72.2081 312.892L62.1289 302.823L52.0501 292.754L49.4608 295.365C48.0365 296.802 46.8715 298.16 46.8715 298.384C46.8715 298.927 66.0784 318.097 66.6223 318.097Z" fill="#0D1018"/>
<path fill-rule="evenodd" clip-rule="evenodd" d="M15.5335 95.0568C15.2689 95.1674 15.1229 95.3865 15.1229 95.6731C15.1229 95.8977 15.4351 96.2441 17.4909 98.2999L19.8591 100.668V101.482V102.296L19.0657 103.085L18.2723 103.875H17.4614H16.6504L14.2821 101.509C12.1238 99.3529 11.8892 99.1439 11.6359 99.1511C11.4765 99.1556 11.2814 99.2353 11.1789 99.3378C11.0043 99.5124 11 99.5877 11 102.508V105.5L12.9046 107.404L14.8092 109.308L17.5695 109.332L20.3299 109.357L23.2406 112.262L26.1513 115.168L28.6544 112.665L31.1575 110.162L28.2517 107.259L25.3458 104.355L25.32 101.591L25.2944 98.8277L23.3898 96.924L21.4851 95.0204L18.5965 95.0022C17.0077 94.9922 15.6293 95.0168 15.5335 95.0568ZM45.6514 96.7611C43.6795 97.7452 42.0094 98.6185 41.9402 98.7018C41.8434 98.818 41.8083 99.1725 41.7886 100.231L41.763 101.608L34.0634 109.308L26.3637 117.008L28.1834 118.826L30.003 120.643L37.7003 112.949L45.3977 105.255L46.7815 105.228C47.8364 105.208 48.2009 105.172 48.3151 105.077C48.5769 104.859 51.9572 98.0062 51.9572 97.6931C51.9572 97.4475 51.8143 97.2719 50.7803 96.2469C50.133 95.6051 49.5208 95.0558 49.42 95.026C49.2858 94.9864 48.2753 95.4516 45.6514 96.7611ZM34.3456 118.355L31.8425 120.858L34.7483 123.762L37.6542 126.665L37.68 129.429L37.7056 132.193L39.6103 134.096L41.515 136H44.5082C47.4757 136 47.503 135.998 47.6893 135.812C47.8028 135.699 47.8771 135.518 47.8771 135.357C47.8771 135.12 47.6012 134.813 45.5091 132.721L43.1409 130.352V129.539V128.725L43.977 127.892L44.8131 127.06H45.5397H46.2662L48.6618 129.455C50.9122 131.706 51.076 131.851 51.3656 131.851C51.5703 131.851 51.7287 131.79 51.8369 131.671C51.9908 131.501 52 131.321 52 128.505V125.52L50.0954 123.617L48.1908 121.713L45.4305 121.688L42.6701 121.664L39.7594 118.758L36.8487 115.852L34.3456 118.355ZM23.7965 116.939C23.7258 116.964 23.2922 117.355 22.8329 117.807L21.9978 118.631L25.1858 121.818L28.3738 125.005L29.2094 124.173C29.9508 123.435 30.0449 123.308 30.0449 123.04C30.0449 122.758 29.8595 122.554 27.1561 119.86C25.5672 118.277 24.1902 116.962 24.096 116.938C24.0019 116.914 23.8671 116.914 23.7965 116.939ZM16.3843 124.257C12.0331 128.622 11.8298 128.841 11.5381 129.455C11.1494 130.274 11.0265 130.793 11.0305 131.597C11.0358 132.696 11.2736 133.431 11.8877 134.244C12.3441 134.849 12.8172 135.223 13.5975 135.597C14.1535 135.864 14.3254 135.903 15.082 135.94C16.1138 135.989 16.6768 135.881 17.548 135.465C18.1614 135.172 18.3932 134.956 22.7492 130.617L27.3084 126.076L24.1172 122.888L20.926 119.7L16.3843 124.257Z" fill="#20222B"/>
<path fill-rule="evenodd" clip-rule="evenodd" d="M87.768 20.0392C83.0917 20.3887 78.7458 23.5934 76.9403 28.024C74.4857 34.0469 76.9861 41.0678 82.7028 44.2048C83.2995 44.5321 83.465 44.6779 83.4056 44.8241C83.363 44.9292 83.222 45.518 83.0925 46.1324C82.8962 47.0632 82.8665 47.5435 82.9148 49.0133C82.981 51.0286 83.2497 52.1681 84.0604 53.8714C86.4447 58.8802 91.8469 61.6862 97.3441 60.7707C98.0447 60.654 98.7515 60.592 98.9148 60.633C99.1381 60.6889 100.946 63.0279 106.211 70.0745C110.061 75.2263 113.247 79.4986 113.292 79.5683C113.376 79.6985 118.63 80.0943 118.745 79.9793C118.909 79.8162 119.894 75.0698 119.823 74.7877C119.693 74.2713 119.348 74.0681 117.897 73.6542C116.7 73.3126 116.45 73.1975 116.085 72.8197C115.586 72.3045 115.473 71.8144 115.631 70.8513C115.812 69.7504 115.868 69.8244 114.543 69.4134C112.661 68.8296 112.269 68.2698 112.551 66.5649C112.627 66.1099 112.657 65.7065 112.619 65.6684C112.581 65.6304 112.074 65.4572 111.492 65.2836C110.268 64.9184 109.93 64.7242 109.613 64.205C109.348 63.7712 109.321 63.1339 109.513 61.8432L109.644 60.9644L109.119 60.2803C106.901 57.3948 105.849 55.8521 105.849 55.4848C105.849 55.2733 106.084 54.6039 106.371 53.9971C109.213 47.9961 106.882 40.9558 101.006 37.793C98.5753 36.4844 95.6001 36.0297 92.8334 36.5437C89.6483 37.1357 86.5665 39.1975 84.806 41.9143C84.518 42.3587 84.2218 42.7224 84.1477 42.7224C83.8244 42.7224 82.3534 41.711 81.4698 40.8811C79.8569 39.3664 78.8391 37.6686 78.2737 35.5495C77.9302 34.2617 77.8968 31.7063 78.2072 30.4518C79.0351 27.1055 81.144 24.492 84.1998 23.0254C87.7333 21.3293 91.803 21.6298 95.0714 23.8285C96.5412 24.8173 98.2638 26.804 98.8355 28.1701L99.0115 28.5906L98.3961 28.6738C96.8069 28.8886 94.7599 29.7096 93.1868 30.7632C92.2376 31.3988 90.7158 32.9493 90.0368 33.9725C89.1914 35.2465 89.1797 35.2263 90.4995 34.7767C92.0672 34.2426 93.4597 34.0209 95.2481 34.0209C99.3274 34.0209 102.905 35.5265 105.714 38.4256C108.592 41.3951 109.986 45.0426 109.805 49.1308C109.765 50.0363 109.72 50.8964 109.705 51.0423C109.68 51.2763 110.814 51.9868 119.306 57.0598L128.934 62.812L131.438 61.9814C132.815 61.5246 133.964 61.1307 133.993 61.1061C134.086 61.0246 133.259 56.3098 133.092 55.9752C132.817 55.4224 132.512 55.3591 130.897 55.5191C129.202 55.6869 128.812 55.6302 128.296 55.1406C127.99 54.8505 127.854 54.5616 127.638 53.741C127.457 53.0517 127.318 52.7252 127.221 52.762C127.142 52.7925 126.528 52.8512 125.857 52.8924C124.81 52.9569 124.578 52.9371 124.226 52.7543C123.663 52.4609 123.336 51.924 123.163 51.006C123.082 50.5787 122.945 50.2019 122.859 50.169C122.773 50.136 122.217 50.1608 121.624 50.224C119.678 50.4315 119.203 50.113 118.684 48.2568C118.496 47.5822 118.274 46.9677 118.191 46.8915C118.108 46.8152 116.926 46.0882 115.564 45.2759C114.201 44.4635 112.983 43.6843 112.856 43.5444C112.645 43.3106 112.628 43.1358 112.656 41.3894C112.691 39.2326 112.506 38.063 111.872 36.4315C110.278 32.3248 106.5 29.316 102.157 28.6947L101.116 28.5457L100.789 27.7852C98.5905 22.6698 93.4543 19.6143 87.768 20.0392ZM93.6829 40.5025C94.6233 40.8467 95.6988 41.9306 96.0666 42.9045C96.4399 43.8936 96.3759 45.34 95.9171 46.2761C95.5257 47.0746 94.7467 47.8129 93.8552 48.2301C93.2866 48.4962 93.0285 48.5429 92.1267 48.5429C91.2239 48.5429 90.9669 48.4963 90.3957 48.2289C89.596 47.8548 88.7217 47.0185 88.4136 46.3333L88.1911 45.8384L89.3933 45.777C90.3978 45.7258 90.6342 45.7475 90.831 45.9093C91.2506 46.2542 91.5705 46.3675 92.1248 46.3675C93.9158 46.3675 94.7966 44.2785 93.5362 43.0202C92.7041 42.1894 91.5015 42.2196 90.7131 43.0908C90.4864 43.3412 90.301 43.5916 90.301 43.6469C90.301 43.7845 89.1831 43.8894 88.5161 43.8143L87.9718 43.753L88.0896 43.3259C88.4337 42.0784 89.4377 40.9356 90.5721 40.5003C91.4294 40.1713 92.7805 40.1722 93.6829 40.5025ZM121.356 53.4273C126.01 56.2109 129.938 58.6214 130.084 58.7841C130.393 59.129 130.432 59.7186 130.172 60.0901C129.902 60.4746 129.25 60.6522 128.848 60.4506C127.775 59.9123 111.985 50.4102 111.768 50.1721C111.188 49.5375 111.69 48.3665 112.542 48.3665C112.795 48.3665 115.262 49.7833 121.356 53.4273ZM102.074 57.7705C102.192 57.8337 105.369 62.0086 109.134 67.0481C115.519 75.5951 115.979 76.2429 115.979 76.6828C115.979 77.0689 115.91 77.2118 115.602 77.4705C115.298 77.7265 115.148 77.7738 114.814 77.7197C114.587 77.6831 114.286 77.5323 114.146 77.3847C113.879 77.1054 100.978 59.8396 100.613 59.2732C100.041 58.3879 101.132 57.2669 102.074 57.7705Z" fill="#20222B"/>
<path fill-rule="evenodd" clip-rule="evenodd" d="M219.923 33.0848C214.753 33.4021 209.678 34.6172 206.702 36.2503C204.625 37.39 203.199 38.8323 202.701 40.2946C202.513 40.8487 202.509 40.9405 202.484 45.349C202.455 50.2526 202.461 50.322 202.952 51.1684C203.285 51.7419 204.207 52.6468 204.965 53.1447C205.588 53.5537 206.291 53.9456 206.402 53.9456C206.427 53.9456 206.448 52.7716 206.448 51.3367C206.448 49.9018 206.477 48.729 206.512 48.7305C206.547 48.732 207.033 48.893 207.592 49.0882L208.609 49.4431L208.631 52.183L208.654 54.9229L209.489 55.1963C210.21 55.4325 212.557 56.0481 212.741 56.0492C212.776 56.0494 212.804 54.821 212.804 53.3194C212.804 51.8177 212.837 50.5692 212.876 50.5448C212.916 50.5204 213.383 50.5747 213.915 50.6655C214.446 50.7563 214.909 50.8309 214.944 50.8312C214.979 50.8315 215.008 52.0962 215.008 53.6417V56.4516L215.283 56.5011C215.827 56.5989 217.609 56.7979 218.461 56.8559L219.33 56.9152V54.0724V51.2296L219.723 51.2832C219.939 51.3126 220.416 51.3367 220.782 51.3367H221.448V54.1453V56.9539L221.893 56.9984C222.138 57.0229 223.091 57.0219 224.011 56.9962L225.683 56.9493L225.706 54.1219L225.728 51.2946L226.745 51.2026C227.304 51.152 227.791 51.1259 227.826 51.1445C227.861 51.1631 227.889 52.4258 227.889 53.9506V56.7228L228.165 56.7225C228.4 56.7222 230.451 56.4432 231.596 56.2556L231.955 56.1967L231.977 53.3669L231.999 50.5372L232.889 50.3509C233.379 50.2484 233.846 50.1631 233.927 50.1615C234.066 50.1586 234.076 50.3457 234.076 52.9357C234.076 54.5701 234.108 55.7129 234.154 55.7129C234.327 55.7129 236.305 55.1159 236.948 54.8697L237.635 54.6067V51.8458V49.085L238.165 48.8907C238.456 48.7839 238.932 48.5918 239.223 48.4637L239.751 48.2309L239.774 50.9225L239.796 53.6142L240.474 53.1766C241.366 52.6007 242.438 51.5233 242.744 50.894C243.14 50.0803 243.161 49.773 243.12 45.199C243.089 41.7299 243.059 40.8636 242.954 40.5129C242.134 37.7568 238.741 35.547 233.279 34.2111C229.194 33.2117 224.417 32.8089 219.923 33.0848ZM227.55 35.7162C233.611 36.4331 238.334 38.1457 239.976 40.2208C240.898 41.3874 240.775 42.4332 239.578 43.5941C237.57 45.5424 233.107 47.0502 227.445 47.6936C225.593 47.904 220.016 47.904 218.164 47.6936C211.654 46.9539 206.65 45.0159 205.297 42.7105C205.087 42.3539 205.05 42.1992 205.05 41.6973C205.05 41.1698 205.082 41.0512 205.346 40.6145C206.709 38.3607 211.915 36.3676 218.102 35.7301C218.801 35.6581 219.544 35.5848 219.753 35.5671C220.791 35.4794 226.467 35.588 227.55 35.7162ZM220.262 37.2771C220.262 37.6046 220.258 37.6091 219.902 37.6492C217.396 37.9315 216.368 38.1576 215.365 38.647C214.68 38.9815 214.329 39.3684 214.33 39.7889C214.332 41.0972 216.931 41.8954 222.338 42.2485C223.958 42.3543 225.419 42.5397 226.013 42.7149C226.532 42.8679 226.923 43.1728 226.848 43.3661C226.698 43.7557 225.757 43.9293 223.79 43.9301C222.055 43.9309 220.874 43.7723 219.683 43.3786L218.807 43.0892H216.568H214.33L214.329 43.5731C214.329 43.8392 214.304 44.3695 214.274 44.7513L214.22 45.4456H216.478C218.709 45.4456 218.736 45.4434 218.736 45.2707C218.736 45.1247 218.775 45.1033 218.969 45.1415C219.098 45.1667 219.355 45.2109 219.541 45.2397C220.185 45.3391 220.177 45.3314 220.177 45.83V46.2872H222.423H224.669V45.9211V45.555L225.694 45.4975C228.927 45.316 231.28 44.4152 231.278 43.3598C231.277 42.6854 230.646 42.1738 229.222 41.6928C227.893 41.244 226.099 40.9673 223.27 40.775C222.245 40.7052 221.101 40.6081 220.728 40.5592C218.706 40.2937 218.107 39.8349 219.202 39.3909C219.667 39.2026 219.85 39.182 221.321 39.1525C223.19 39.115 224.243 39.2389 225.44 39.637L226.204 39.8912H228.446H230.687L230.646 39.4494C230.623 39.2063 230.581 38.7141 230.553 38.3553L230.502 37.7031H228.4C226.433 37.7031 226.296 37.7129 226.258 37.8575C226.22 38.0024 226.179 38.0052 225.591 37.9029C225.247 37.8429 224.86 37.7924 224.732 37.7906C224.51 37.7874 224.499 37.7685 224.499 37.3664V36.9456H222.381H220.262V37.2771ZM244.902 43.1494L244.669 43.1845V44.3882V45.5919L247.445 45.6372C251.155 45.6976 253.39 45.9584 256.364 46.6775C260.404 47.6544 263.461 49.281 264.249 50.8738C264.533 51.446 264.533 52.2299 264.251 52.7658C263.983 53.2753 263.143 54.0931 262.393 54.5749C257.303 57.8447 246.377 58.9888 237.938 57.1356C237.289 56.993 236.659 56.8942 236.54 56.9161C236.42 56.9379 235.65 57.129 234.829 57.3408C232.603 57.9153 229.754 58.3716 227.253 58.5544L226.406 58.6164L226.415 59.4737C226.424 60.2766 226.444 60.3721 226.734 60.9777C227.221 61.9972 228.529 63.175 229.987 63.9079L230.432 64.1316V61.4722C230.432 60.0094 230.463 58.8253 230.502 58.8408C230.541 58.8562 231.017 59.0202 231.561 59.2051L232.55 59.5413V62.2812V65.0211L233.386 65.2949C234.193 65.5592 236.465 66.1474 236.682 66.1482C236.764 66.1484 236.788 65.5372 236.788 63.3713C236.788 61.8059 236.82 60.5941 236.863 60.5941C236.904 60.5941 237.238 60.6477 237.605 60.7133C237.971 60.7788 238.414 60.8563 238.588 60.8854L238.906 60.9384V63.7441V66.55L239.563 66.6448C240.382 66.763 242.584 66.9862 242.953 66.9884L243.228 66.9901V64.1591V61.328L243.673 61.3811C243.918 61.4103 244.395 61.4346 244.733 61.4349L245.347 61.4357V64.2576C245.347 66.6084 245.367 67.0871 245.467 67.1251C245.532 67.1501 246.495 67.1395 247.606 67.1014L249.627 67.0322L249.649 64.2018L249.671 61.3714L250.497 61.3156C250.95 61.2849 251.427 61.2395 251.555 61.2148L251.788 61.1698V64.0298V66.89L252.148 66.8485C252.814 66.772 255.472 66.3912 255.664 66.3449L255.854 66.2992L255.876 63.4774L255.898 60.6557L256.83 60.4612C257.343 60.3541 257.829 60.2646 257.911 60.2621C258.049 60.2578 258.059 60.4444 258.059 63.0413V65.8253L258.335 65.766C258.789 65.6683 260.438 65.1582 260.983 64.947L261.491 64.7499L261.514 61.9627L261.536 59.1757L261.853 59.0752C262.027 59.0199 262.484 58.8467 262.87 58.6903C263.255 58.5339 263.588 58.406 263.611 58.406C263.634 58.406 263.652 59.5989 263.652 61.057C263.652 62.515 263.677 63.7079 263.707 63.7079C263.736 63.7079 264.075 63.5002 264.459 63.2464C265.474 62.5758 266.293 61.7289 266.682 60.948L267 60.3082V55.633V50.958L266.802 50.4109C265.385 46.4983 258.724 43.7395 249.33 43.1741C247.975 43.0926 245.376 43.0781 244.902 43.1494ZM200.346 44.1563C197.626 44.434 196.288 44.6396 194.414 45.0673C188.429 46.434 184.727 48.8642 184.112 51.832C184.004 52.3517 183.987 53.1727 184.008 56.8439L184.032 61.2344L184.346 61.861C184.731 62.6285 185.24 63.2153 186.024 63.7921C186.602 64.2176 187.859 64.9703 187.992 64.9703C188.028 64.9703 188.058 63.7963 188.058 62.3614C188.058 60.9265 188.083 59.7525 188.113 59.7525C188.143 59.7525 188.62 59.9089 189.171 60.1001L190.174 60.4476L190.197 63.1899L190.219 65.9321L191.109 66.2129C191.598 66.3673 192.475 66.6079 193.058 66.7476C193.641 66.8872 194.184 67.0203 194.266 67.0435C194.405 67.083 194.414 66.912 194.414 64.2812V61.4769L195.472 61.6428L196.53 61.8087L196.553 64.6308L196.575 67.453L197.041 67.5124C197.608 67.5848 199.697 67.8041 200.367 67.8618L200.855 67.9036V65.0905V62.2772L201.723 62.2784C202.201 62.279 202.678 62.3024 202.783 62.3303L202.973 62.381V65.1905V68H204.486C205.318 68 206.29 67.9755 206.647 67.9455L207.295 67.8912V65.0816C207.295 62.9075 207.319 62.2645 207.401 62.2392C207.46 62.2212 207.936 62.1825 208.461 62.1531L209.414 62.0999V64.9297V67.7596L209.901 67.7048C210.497 67.6376 212.536 67.3514 213.058 67.2615L213.44 67.1959L213.462 64.3636L213.484 61.5313L213.97 61.4347C214.238 61.3816 214.697 61.2843 214.992 61.2185C215.286 61.1528 215.543 61.099 215.564 61.099C215.584 61.099 215.601 62.3677 215.601 63.9183C215.601 65.4689 215.615 66.7376 215.632 66.7376C215.735 66.7376 217.559 66.1817 218.29 65.9276L219.158 65.6261L219.18 62.843L219.202 60.06L220.219 59.6648L221.236 59.2697L221.259 61.9181C221.278 64.218 221.298 64.5603 221.407 64.5187C221.758 64.3851 222.909 63.5261 223.396 63.035C224.387 62.0351 224.666 61.3008 224.668 59.6848L224.669 58.6494L223.758 58.705C222.81 58.7629 219.092 58.6313 217.602 58.4873C217.131 58.4417 216.024 58.3041 215.142 58.1818L213.539 57.9592L212.319 58.1891C209.342 58.7503 206.723 58.9533 203.355 58.8842C200.831 58.8323 199.316 58.7025 197.235 58.3595C192.393 57.5614 188.402 55.8839 187.07 54.087C186.482 53.2944 186.384 52.625 186.742 51.8608C187.859 49.4784 193.347 47.338 199.986 46.6959L201.024 46.5955V45.3473C201.024 43.942 201.102 44.0791 200.346 44.1563ZM244.669 48.1387V49.2327H245.485C246.609 49.2327 247.928 49.4426 248.961 49.7857L249.83 50.0743H251.957H254.085L254.033 49.1275C254.005 48.6068 253.964 48.0956 253.942 47.9914L253.903 47.802H251.786C249.689 47.802 249.669 47.8037 249.669 47.9795C249.669 48.124 249.632 48.1477 249.469 48.107C249.248 48.0518 248.163 47.8905 247.995 47.8879C247.925 47.8868 247.889 47.7451 247.889 47.4654V47.0446H246.279H244.669V48.1387ZM199.711 48.861C198.067 49.1131 196.757 49.5992 196.181 50.1706C195.839 50.5106 195.774 50.7793 195.934 51.1969C196.253 52.0302 198.473 52.7669 201.635 53.0889C202.09 53.1352 202.268 53.1284 202.219 53.0666C201.763 52.4869 201.538 52.1416 201.383 51.7836C201.222 51.4121 201.158 51.3488 200.899 51.3006C200.735 51.27 200.496 51.1543 200.368 51.0435C200.072 50.7876 200.167 50.5909 200.672 50.4136L201.024 50.2899V49.5089V48.7278L200.749 48.7359C200.597 48.7404 200.13 48.7967 199.711 48.861ZM244.547 51.0443C244.514 51.217 244.399 51.5584 244.29 51.803L244.092 52.2477L244.571 52.2975C244.835 52.3249 245.622 52.3864 246.322 52.4342C248.536 52.5856 249.821 52.8537 250.188 53.2409C250.368 53.4315 250.369 53.4451 250.224 53.6045C249.937 53.92 248.944 54.0712 247.211 54.0636C245.578 54.0563 244.713 53.9644 243.67 53.6875L243.052 53.5234L242.483 53.9725C241.718 54.5769 241.465 54.746 240.61 55.222L239.881 55.6283L241.046 55.6286C242.155 55.6288 242.211 55.6206 242.211 55.4604C242.211 55.2633 242.293 55.2564 243.028 55.3908L243.567 55.4896V55.9799V56.4703H245.856H248.144V56.1048V55.7393L249.335 55.6401C252.856 55.3472 255.001 54.4279 254.723 53.3305C254.403 52.062 251.725 51.2302 246.957 50.9182C246.235 50.8709 245.41 50.8093 245.125 50.7812L244.606 50.7303L244.547 51.0443ZM195.855 54.9016C195.855 55.335 195.83 55.8652 195.801 56.0798L195.747 56.4703H198.004C199.913 56.4703 200.261 56.4517 200.261 56.3491C200.261 56.1617 200.353 56.143 200.855 56.2276C201.761 56.3801 201.702 56.3366 201.702 56.8506V57.3119H203.948H206.194V56.9843C206.194 56.5823 206.254 56.5545 207.133 56.5545C207.502 56.5545 207.803 56.5261 207.803 56.4914C207.802 56.4566 207.507 56.3163 207.146 56.1795C206.785 56.0427 206.068 55.7171 205.553 55.456C204.69 55.0189 204.555 54.9764 203.858 54.9214C202.909 54.8464 202.048 54.6736 201.058 54.359C200.287 54.1141 200.285 54.1139 198.07 54.1139H195.855V54.9016Z" fill="#20222B"/>
<path fill-rule="evenodd" clip-rule="evenodd" d="M294.248 74.1141C293.393 74.3097 292.843 75.2269 293.04 76.1289C293.174 76.7444 294.133 78.5679 294.639 79.1698C295.177 79.8096 296.017 80.3778 296.907 80.7045L297.603 80.9599H304.998H312.394L313.09 80.7045C313.98 80.3778 314.82 79.8096 315.358 79.1698C315.864 78.5679 316.823 76.7444 316.957 76.1289C317.164 75.1806 316.609 74.3109 315.665 74.1052C314.996 73.9595 294.888 73.9677 294.248 74.1141ZM301.545 97.6717L301.545 112.572L302.454 117.2C302.954 119.745 303.435 121.968 303.523 122.139C303.611 122.311 303.812 122.575 303.971 122.726C304.221 122.963 304.36 123 304.998 123C305.637 123 305.776 122.963 306.026 122.726C306.184 122.575 306.386 122.311 306.474 122.139C306.562 121.968 307.042 119.745 307.542 117.2L308.451 112.572L308.452 97.6717L308.453 82.7711H304.998H301.544L301.545 97.6717Z" fill="#20222B"/>
</svg>
