<svg width="328" height="344" viewBox="0 0 328 344" fill="none" xmlns="http://www.w3.org/2000/svg">
<path fill-rule="evenodd" clip-rule="evenodd" d="M125.934 102.268C120.538 103.945 116.5 108.644 115.577 114.317C115.352 115.702 115.167 127.672 115.166 140.916L115.164 164.997L112.312 164.849C109.098 164.683 106.458 165.482 104.367 167.255C102.056 169.213 101.062 171.557 100.082 177.357C98.3669 187.511 97.6388 190.088 94.1107 198.492C90.5706 206.925 90.5309 207.225 90.2716 227.478C90.1462 237.262 90.0269 250.051 90.0062 255.898C89.9554 270.359 90.0015 270.501 99.1975 284.317C102.374 289.09 105.551 294.362 106.255 296.033C107.478 298.93 107.55 299.449 107.813 307.314C108.121 316.513 108.542 318.152 111.314 320.943C114.461 324.113 113.35 323.999 141.228 323.999C169.106 323.999 167.995 324.113 171.142 320.943C174.05 318.014 174.372 316.645 174.615 306.164C174.863 295.456 174.694 295.954 178.878 293.604C182.751 291.429 187.456 287.69 191.409 283.646L195.082 279.887L197.799 279.646C202.964 279.189 208.085 275.48 210.01 270.801L210.966 268.48H214.532C221.032 268.48 225.44 265.839 228.132 260.331C229.398 257.742 229.548 257.041 229.548 253.728C229.548 250.407 229.399 249.718 228.117 247.094L226.686 244.166L228.625 242.268C229.692 241.223 231.11 239.323 231.778 238.046C232.862 235.967 232.991 235.282 232.993 231.561C232.995 227.717 232.888 227.193 231.597 224.671L230.199 221.942L232.12 220.239C234.466 218.159 236.544 214.05 236.914 210.757C237.435 206.128 235.556 201.335 231.924 198.03C228.509 194.923 227.069 194.525 218.652 194.359L211.203 194.213L211.328 190.97L211.453 187.728L217.952 185.016C227.826 180.894 229.512 179.671 231.956 174.854C232.838 173.116 232.995 172.186 232.995 168.685C232.995 165.132 232.837 164.225 231.853 162.11C228.723 155.386 220.671 151.902 213.731 154.268L211.269 155.108L211.146 134.009L211.022 112.91L209.604 110.01C208.062 106.855 205.857 104.651 202.654 103.061L200.682 102.083L163.847 102.008C143.587 101.967 126.526 102.084 125.934 102.268Z" fill="#DA8433"/>
<path fill-rule="evenodd" clip-rule="evenodd" d="M125.934 102.268C120.538 103.945 116.5 108.644 115.577 114.317C115.352 115.702 115.167 127.672 115.166 140.916L115.164 164.997L112.312 164.849C109.098 164.683 106.458 165.482 104.367 167.255C102.056 169.213 101.062 171.557 100.082 177.357C98.3669 187.511 97.6388 190.088 94.1107 198.492C90.5706 206.925 90.5309 207.225 90.2716 227.478C90.1462 237.262 90.0269 250.051 90.0062 255.898C89.9554 270.359 90.0015 270.501 99.1975 284.317C102.374 289.09 105.551 294.362 106.255 296.033C107.478 298.93 107.55 299.449 107.813 307.314C108.121 316.513 108.542 318.152 111.314 320.943C114.461 324.113 113.35 323.999 141.228 323.999C169.106 323.999 167.995 324.113 171.142 320.943C174.05 318.014 174.372 316.645 174.615 306.164C174.863 295.456 174.694 295.954 178.878 293.604C182.751 291.429 187.456 287.69 191.409 283.646L195.082 279.887L197.799 279.646C202.964 279.189 208.085 275.48 210.01 270.801L210.966 268.48H214.532C221.032 268.48 225.44 265.839 228.132 260.331C229.398 257.742 229.548 257.041 229.548 253.728C229.548 250.407 229.399 249.718 228.117 247.094L226.686 244.166L228.625 242.268C229.692 241.223 231.11 239.323 231.778 238.046C232.862 235.967 232.991 235.282 232.993 231.561C232.995 227.717 232.888 227.193 231.597 224.671L230.199 221.942L232.12 220.239C234.466 218.159 236.544 214.05 236.914 210.757C237.435 206.128 235.556 201.335 231.924 198.03C228.509 194.923 227.069 194.525 218.652 194.359L211.203 194.213L211.328 190.97L211.453 187.728L217.952 185.016C227.826 180.894 229.512 179.671 231.956 174.854C232.838 173.116 232.995 172.186 232.995 168.685C232.995 165.132 232.837 164.225 231.853 162.11C228.723 155.386 220.671 151.902 213.731 154.268L211.269 155.108L211.146 134.009L211.022 112.91L209.604 110.01C208.062 106.855 205.857 104.651 202.654 103.061L200.682 102.083L163.847 102.008C143.587 101.967 126.526 102.084 125.934 102.268ZM222.349 162.471C225.407 164.752 226.347 168.695 224.638 172.069C223.69 173.94 222.261 174.828 215.827 177.542L211.219 179.487L211.336 171.417L211.453 163.347L214.038 162.327C217.187 161.084 220.569 161.143 222.349 162.471ZM115.635 173.485C123.129 177.305 124.989 191.753 119.969 207.151C117.685 214.155 115.527 218.739 113.44 221.018C112.408 222.146 111.716 223.328 111.716 223.964C111.716 225.292 113.675 227.695 114.758 227.695C115.539 227.695 115.574 228.452 115.689 248.196L115.809 268.697L116.939 271.084C118.16 273.664 120.098 275.857 122.487 277.364C125.995 279.576 125.159 279.516 155.66 279.754L184.309 279.979L181.106 282.503C179.344 283.891 176.533 285.842 174.859 286.839C173.186 287.836 170.996 289.498 169.993 290.531C167.273 293.332 166.862 295.227 166.862 304.978C166.862 309.453 166.67 313.625 166.434 314.249C165.534 316.634 165.06 316.676 140.316 316.545L117.673 316.425L116.633 315.208C115.637 314.042 115.593 313.723 115.586 307.615C115.573 296.53 114.594 293.707 106.511 281.459C103.231 276.489 100.082 271.487 99.5133 270.343C97.2933 265.881 96.8417 260.896 97.5367 248.521C97.8249 243.391 98.0886 232.554 98.1226 224.44C98.1933 207.747 97.9253 209.368 102.444 198.316C104.704 192.788 106.212 187.197 107.392 179.966C108.398 173.801 108.513 173.502 110.165 172.771C111.674 172.103 113.352 172.322 115.635 173.485ZM225.671 203.08C230.458 205.777 230.287 213.063 225.376 215.586C223.808 216.392 223.005 216.456 215.972 216.332C208.997 216.209 208.172 216.113 207.094 215.302C204.78 213.559 204.129 212.232 204.129 209.254C204.129 206.172 204.852 204.788 207.356 203.071C208.701 202.149 209.203 202.095 216.364 202.102C223.408 202.109 224.07 202.178 225.671 203.08ZM222.628 225.691C226.637 228.774 226.39 234.605 222.127 237.498C221.026 238.245 219.843 238.482 216.105 238.706C209.426 239.107 207.099 238.354 204.883 235.075C203.262 232.676 203.781 228.214 205.902 226.314C208.023 224.415 209.068 224.189 215.151 224.317C220.85 224.437 221.044 224.473 222.628 225.691ZM218.663 247.582C220.813 248.92 222.186 251.844 221.893 254.458C221.37 259.134 216.693 261.797 210.502 260.942C206.282 260.36 203.664 257.203 204.001 253.106C204.234 250.283 205.562 248.287 207.964 247.152C210.495 245.958 216.436 246.196 218.663 247.582ZM123.975 302.955C123.271 303.665 122.922 304.497 122.931 305.45C122.957 308.173 124.617 309.266 128.725 309.266C131.175 309.266 131.721 309.117 132.631 308.201C134.158 306.663 134.192 304.473 132.713 302.866C131.928 302.013 131.387 301.89 128.424 301.89C125.398 301.89 124.919 302.005 123.975 302.955ZM142.444 302.866C141.964 303.404 141.448 304.195 141.296 304.626C140.926 305.68 142.024 308.216 143.102 308.798C144.307 309.447 156.298 309.417 157.52 308.762C159.796 307.541 160.259 304.746 158.481 302.955C157.444 301.911 157.284 301.89 150.37 301.89C143.601 301.89 143.282 301.93 142.444 302.866Z" fill="#DA8433"/>
<path fill-rule="evenodd" clip-rule="evenodd" d="M125.934 102.268C120.538 103.945 116.5 108.644 115.577 114.317C115.352 115.702 115.167 127.672 115.166 140.916L115.164 164.997L112.312 164.849C109.098 164.683 106.458 165.482 104.367 167.255C102.056 169.213 101.062 171.557 100.082 177.357C98.3669 187.511 97.6388 190.088 94.1107 198.492C90.5706 206.925 90.5309 207.225 90.2716 227.478C90.1462 237.262 90.0269 250.051 90.0062 255.898C89.9554 270.359 90.0015 270.501 99.1975 284.317C102.374 289.09 105.551 294.362 106.255 296.033C107.478 298.93 107.55 299.449 107.813 307.314C108.121 316.513 108.542 318.152 111.314 320.943C114.461 324.113 113.35 323.999 141.228 323.999C169.106 323.999 167.995 324.113 171.142 320.943C174.05 318.014 174.372 316.645 174.615 306.164C174.863 295.456 174.694 295.954 178.878 293.604C182.751 291.429 187.456 287.69 191.409 283.646L195.082 279.887L197.799 279.646C202.964 279.189 208.085 275.48 210.01 270.801L210.966 268.48H214.532C221.032 268.48 225.44 265.839 228.132 260.331C229.398 257.742 229.548 257.041 229.548 253.728C229.548 250.407 229.399 249.718 228.117 247.094L226.686 244.166L228.625 242.268C229.692 241.223 231.11 239.323 231.778 238.046C232.862 235.967 232.991 235.282 232.993 231.561C232.995 227.717 232.888 227.193 231.597 224.671L230.199 221.942L232.12 220.239C234.466 218.159 236.544 214.05 236.914 210.757C237.435 206.128 235.556 201.335 231.924 198.03C228.509 194.923 227.069 194.525 218.652 194.359L211.203 194.213L211.328 190.97L211.453 187.728L217.952 185.016C227.826 180.894 229.512 179.671 231.956 174.854C232.838 173.116 232.995 172.186 232.995 168.685C232.995 165.132 232.837 164.225 231.853 162.11C228.723 155.386 220.671 151.902 213.731 154.268L211.269 155.108L211.146 134.009L211.022 112.91L209.604 110.01C208.062 106.855 205.857 104.651 202.654 103.061L200.682 102.083L163.847 102.008C143.587 101.967 126.526 102.084 125.934 102.268ZM181.82 112.165C181.721 112.824 181.637 112.388 181.634 111.195C181.631 110.001 181.712 109.462 181.814 109.995C181.916 110.529 181.919 111.505 181.82 112.165ZM220.38 161.328C223.987 162.337 226.26 165.963 225.689 169.797C225.212 172.999 222.912 174.942 216.599 177.476C213.769 178.611 211.308 179.539 211.13 179.537C210.952 179.534 210.807 175.916 210.807 171.495V163.457L211.992 162.983C217.602 160.739 217.996 160.662 220.38 161.328ZM115.432 173.2C118.226 174.51 120.456 177.376 121.678 181.226C122.971 185.299 123.272 194.004 122.299 199.208C120.776 207.357 116.522 218.111 113.695 220.958C112.555 222.106 112.147 222.888 112.147 223.925C112.147 225.671 113.084 227.077 114.487 227.431L115.554 227.701L115.681 247.982L115.809 268.263L116.959 270.735C118.348 273.718 121.089 276.557 124 278.026L126.149 279.111L155.338 279.231C172.421 279.301 184.526 279.514 184.526 279.745C184.526 280.318 179.932 283.866 174.673 287.355C170.919 289.845 169.852 290.8 168.755 292.655C167.111 295.435 166.871 297.26 166.866 307.008C166.862 314.395 166.846 314.529 165.805 315.577L164.747 316.642H141.343C115.309 316.642 116.46 316.774 115.613 313.701C115.368 312.813 115.167 309.341 115.165 305.985C115.163 301.234 114.967 299.133 114.28 296.489C113.102 291.959 112.57 290.967 105.809 280.696C102.613 275.84 99.5435 270.861 98.9886 269.632C97.2502 265.779 96.9077 262.277 97.2631 251.993C97.4402 246.862 97.7301 235.049 97.9072 225.742C98.1282 214.131 98.4005 208.276 98.7744 207.085C99.0743 206.13 100.356 202.909 101.624 199.926C104.284 193.662 105.67 188.707 107.141 180.196C108.065 174.853 108.325 174.017 109.331 173.145C110.801 171.871 112.632 171.887 115.432 173.2ZM225.325 202.571C230.388 205.039 230.766 212.264 226.004 215.553C224.52 216.578 224.089 216.637 217.191 216.775C210.429 216.911 209.804 216.856 207.974 215.963C203.594 213.828 202.298 208.303 205.282 204.484C207.102 202.153 208.999 201.681 216.595 201.671C222.696 201.662 223.667 201.762 225.325 202.571ZM220.037 224.205C222.358 224.747 223.769 225.882 224.945 228.154C226.855 231.845 225.427 236.09 221.574 238.171C219.59 239.242 210.769 239.334 208.331 238.308C205.232 237.004 203.81 234.848 203.76 231.379C203.71 227.885 205.926 225.005 209.29 224.193C211.179 223.737 218.064 223.744 220.037 224.205ZM218.101 246.987C219.772 247.857 221.458 249.97 222.038 251.921C222.968 255.045 220.933 259.212 217.842 260.512C217.048 260.846 214.921 261.104 212.961 261.104C208.941 261.104 207.146 260.486 205.521 258.54C202.47 254.889 203.386 249.722 207.537 247.172C209.251 246.12 216.202 245.998 218.101 246.987ZM124.364 302.918C122.828 304.249 122.722 306.659 124.136 308.083C124.959 308.912 125.559 309.049 128.352 309.049C131.387 309.049 131.68 308.966 132.649 307.832C133.221 307.162 133.682 306.088 133.675 305.445C133.647 303.047 131.846 301.89 128.14 301.89C126.037 301.89 125.328 302.083 124.364 302.918ZM143.382 302.414C141.152 303.702 140.767 306.305 142.555 307.998C143.635 309.019 143.86 309.049 150.514 309.049C157.019 309.049 157.408 309.001 158.32 308.083C159.734 306.659 159.628 304.249 158.092 302.918C156.958 301.936 156.623 301.891 150.574 301.903C146.625 301.911 143.92 302.104 143.382 302.414Z" fill="#0D1018"/>
<path fill-rule="evenodd" clip-rule="evenodd" d="M125.934 102.268C120.538 103.945 116.5 108.644 115.577 114.317C115.352 115.702 115.167 127.672 115.166 140.916L115.164 164.997L112.312 164.849C109.098 164.683 106.458 165.482 104.367 167.255C102.056 169.213 101.062 171.557 100.082 177.357C98.3669 187.511 97.6388 190.088 94.1107 198.492C90.5706 206.925 90.5309 207.225 90.2716 227.478C90.1462 237.262 90.0269 250.051 90.0062 255.898C89.9554 270.359 90.0015 270.501 99.1975 284.317C102.374 289.09 105.551 294.362 106.255 296.033C107.478 298.93 107.55 299.449 107.813 307.314C108.121 316.513 108.542 318.152 111.314 320.943C114.461 324.113 113.35 323.999 141.228 323.999C169.106 323.999 167.995 324.113 171.142 320.943C174.05 318.014 174.372 316.645 174.615 306.164C174.863 295.456 174.694 295.954 178.878 293.604C182.751 291.429 187.456 287.69 191.409 283.646L195.082 279.887L197.799 279.646C202.964 279.189 208.085 275.48 210.01 270.801L210.966 268.48H214.532C221.032 268.48 225.44 265.839 228.132 260.331C229.398 257.742 229.548 257.041 229.548 253.728C229.548 250.407 229.399 249.718 228.117 247.094L226.686 244.166L228.625 242.268C229.692 241.223 231.11 239.323 231.778 238.046C232.862 235.967 232.991 235.282 232.993 231.561C232.995 227.717 232.888 227.193 231.597 224.671L230.199 221.942L232.12 220.239C234.466 218.159 236.544 214.05 236.914 210.757C237.435 206.128 235.556 201.335 231.924 198.03C228.509 194.923 227.069 194.525 218.652 194.359L211.203 194.213L211.328 190.97L211.453 187.728L217.952 185.016C227.826 180.894 229.512 179.671 231.956 174.854C232.838 173.116 232.995 172.186 232.995 168.685C232.995 165.132 232.837 164.225 231.853 162.11C228.723 155.386 220.671 151.902 213.731 154.268L211.269 155.108L211.146 134.009L211.022 112.91L209.604 110.01C208.062 106.855 205.857 104.651 202.654 103.061L200.682 102.083L163.847 102.008C143.587 101.967 126.526 102.084 125.934 102.268ZM137.566 112.41C137.566 114.294 137.775 115.788 138.083 116.098C138.367 116.384 138.46 116.618 138.29 116.618C137.746 116.618 139.645 119.827 140.913 121.052C141.585 121.701 143.094 122.677 144.266 123.222C146.37 124.198 146.617 124.211 163.2 124.211C182.025 124.211 182.087 124.203 185.311 121.225C187.778 118.946 188.845 116.506 189.15 112.44L189.393 109.201L191.576 109.33C193.5 109.444 193.874 109.629 194.712 110.885C195.235 111.669 195.87 113.282 196.123 114.468C196.59 116.665 196.842 206.324 196.382 206.788C196.076 207.096 196.099 211.435 196.409 211.748C196.546 211.886 196.604 215.873 196.537 220.607C196.47 225.34 196.423 230.287 196.433 231.6C196.442 232.912 196.487 237.696 196.531 242.23C196.575 246.764 196.577 250.669 196.535 250.908C196.493 251.146 196.44 254.856 196.416 259.152C196.376 266.678 196.332 267.052 195.216 269.451L194.057 271.941L161.611 272.054L129.165 272.169L127.137 271.134C125.965 270.535 124.656 269.409 124.035 268.464L122.962 266.83L122.929 243.851L122.897 220.872L124.387 217.312C125.207 215.355 126.024 213.131 126.204 212.372C126.613 210.645 126.6 210.688 126.92 209.905C129.214 204.291 130.785 189.467 129.702 183.655C129.524 182.7 129.313 181.529 129.235 181.051C128.693 177.778 125.574 171.642 123.638 170.043C122.979 169.498 122.918 167.173 122.916 142.707C122.913 112.817 122.898 112.984 125.773 111.001C127.689 109.678 129.274 109.34 133.796 109.286L137.566 109.242V112.41ZM220.38 161.328C223.987 162.337 226.26 165.963 225.689 169.797C225.212 172.999 222.912 174.942 216.599 177.476C213.769 178.611 211.308 179.539 211.13 179.537C210.952 179.534 210.807 175.916 210.807 171.495V163.457L211.992 162.983C217.602 160.739 217.996 160.662 220.38 161.328ZM115.432 173.2C118.226 174.51 120.456 177.376 121.678 181.226C122.971 185.299 123.272 194.004 122.299 199.208C120.776 207.357 116.522 218.111 113.695 220.958C112.555 222.106 112.147 222.888 112.147 223.925C112.147 225.671 113.084 227.077 114.487 227.431L115.554 227.701L115.681 247.982L115.809 268.263L116.959 270.735C118.348 273.718 121.089 276.557 124 278.026L126.149 279.111L155.338 279.231C172.421 279.301 184.526 279.514 184.526 279.745C184.526 280.318 179.932 283.866 174.673 287.355C170.919 289.845 169.852 290.8 168.755 292.655C167.111 295.435 166.871 297.26 166.866 307.008C166.862 314.395 166.846 314.529 165.805 315.577L164.747 316.642H141.343C115.309 316.642 116.46 316.774 115.613 313.701C115.368 312.813 115.167 309.341 115.165 305.985C115.163 301.234 114.967 299.133 114.28 296.489C113.102 291.959 112.57 290.967 105.809 280.696C102.613 275.84 99.5435 270.861 98.9886 269.632C97.2502 265.779 96.9077 262.277 97.2631 251.993C97.4402 246.862 97.7301 235.049 97.9072 225.742C98.1282 214.131 98.4005 208.276 98.7744 207.085C99.0743 206.13 100.356 202.909 101.624 199.926C104.284 193.662 105.67 188.707 107.141 180.196C108.065 174.853 108.325 174.017 109.331 173.145C110.801 171.871 112.632 171.887 115.432 173.2ZM225.325 202.571C230.388 205.039 230.766 212.264 226.004 215.553C224.52 216.578 224.089 216.637 217.191 216.775C210.429 216.911 209.804 216.856 207.974 215.963C203.594 213.828 202.298 208.303 205.282 204.484C207.102 202.153 208.999 201.681 216.595 201.671C222.696 201.662 223.667 201.762 225.325 202.571ZM220.037 224.205C222.358 224.747 223.769 225.882 224.945 228.154C226.855 231.845 225.427 236.09 221.574 238.171C219.59 239.242 210.769 239.334 208.331 238.308C205.232 237.004 203.81 234.848 203.76 231.379C203.71 227.885 205.926 225.005 209.29 224.193C211.179 223.737 218.064 223.744 220.037 224.205ZM218.101 246.987C219.772 247.857 221.458 249.97 222.038 251.921C222.968 255.045 220.933 259.212 217.842 260.512C217.048 260.846 214.921 261.104 212.961 261.104C208.941 261.104 207.146 260.486 205.521 258.54C202.47 254.889 203.386 249.722 207.537 247.172C209.251 246.12 216.202 245.998 218.101 246.987ZM146.264 258.282C144.59 259.7 144.547 262.267 146.172 263.792C147.237 264.791 147.252 264.792 162.328 264.927C179.339 265.078 180.355 264.955 181.319 262.632C181.778 261.526 181.813 260.861 181.463 259.852C180.574 257.282 179.998 257.199 162.952 257.199H147.541L146.264 258.282ZM124.364 302.918C122.828 304.249 122.722 306.659 124.136 308.083C124.959 308.912 125.559 309.049 128.352 309.049C131.387 309.049 131.68 308.966 132.649 307.832C133.221 307.162 133.682 306.088 133.675 305.445C133.647 303.047 131.846 301.89 128.14 301.89C126.037 301.89 125.328 302.083 124.364 302.918ZM143.382 302.414C141.152 303.702 140.767 306.305 142.555 307.998C143.635 309.019 143.86 309.049 150.514 309.049C157.019 309.049 157.408 309.001 158.32 308.083C159.734 306.659 159.628 304.249 158.092 302.918C156.958 301.936 156.623 301.891 150.574 301.903C146.625 301.911 143.92 302.104 143.382 302.414Z" fill="#0D1018"/>
<path fill-rule="evenodd" clip-rule="evenodd" d="M125.934 102.268C120.538 103.945 116.5 108.644 115.577 114.317C115.352 115.702 115.167 127.672 115.166 140.916L115.164 164.997L112.312 164.849C109.098 164.683 106.458 165.482 104.367 167.255C102.056 169.213 101.062 171.557 100.082 177.357C98.3669 187.511 97.6388 190.088 94.1107 198.492C90.5706 206.925 90.5309 207.225 90.2716 227.478C90.1462 237.262 90.0269 250.051 90.0062 255.898C89.9554 270.359 90.0015 270.501 99.1975 284.317C102.374 289.09 105.551 294.362 106.255 296.033C107.478 298.93 107.55 299.449 107.813 307.314C108.121 316.513 108.542 318.152 111.314 320.943C114.461 324.113 113.35 323.999 141.228 323.999C169.106 323.999 167.995 324.113 171.142 320.943C174.05 318.014 174.372 316.645 174.615 306.164C174.863 295.456 174.694 295.954 178.878 293.604C182.751 291.429 187.456 287.69 191.409 283.646L195.082 279.887L197.799 279.646C202.964 279.189 208.085 275.48 210.01 270.801L210.966 268.48H214.532C221.032 268.48 225.44 265.839 228.132 260.331C229.398 257.742 229.548 257.041 229.548 253.728C229.548 250.407 229.399 249.718 228.117 247.094L226.686 244.166L228.625 242.268C229.692 241.223 231.11 239.323 231.778 238.046C232.862 235.967 232.991 235.282 232.993 231.561C232.995 227.717 232.888 227.193 231.597 224.671L230.199 221.942L232.12 220.239C234.466 218.159 236.544 214.05 236.914 210.757C237.435 206.128 235.556 201.335 231.924 198.03C228.509 194.923 227.069 194.525 218.652 194.359L211.203 194.213L211.328 190.97L211.453 187.728L217.952 185.016C227.826 180.894 229.512 179.671 231.956 174.854C232.838 173.116 232.995 172.186 232.995 168.685C232.995 165.132 232.837 164.225 231.853 162.11C228.723 155.386 220.671 151.902 213.731 154.268L211.269 155.108L211.146 134.009L211.022 112.91L209.604 110.01C208.062 106.855 205.857 104.651 202.654 103.061L200.682 102.083L163.847 102.008C143.587 101.967 126.526 102.084 125.934 102.268ZM137.566 111.55C137.566 116.798 140.013 120.985 144.244 122.974C146.383 123.979 146.514 123.986 163.016 123.99C176.8 123.994 179.963 123.881 181.566 123.331C186.16 121.755 188.835 117.736 188.835 112.411V109.242H193.267C197.014 109.242 197.993 109.393 199.597 110.218C201.831 111.368 202.962 112.792 203.501 115.133C203.721 116.089 203.895 134.25 203.898 156.536L203.903 196.237L201.527 198.336C200.221 199.49 198.63 201.442 197.994 202.675C196.981 204.637 196.835 205.428 196.821 209.037C196.803 213.674 197.522 215.849 200.019 218.713L201.418 220.318L200.15 221.772C195.526 227.077 195.419 235.747 199.916 240.76L201.414 242.43L200.128 244.066C197.387 247.552 196.805 249.245 196.807 253.728C196.809 257.352 196.948 258.115 197.957 260.045C199.151 262.327 200.837 264.343 202.535 265.52C203.306 266.054 203.463 266.455 203.245 267.333C202.862 268.869 200.026 271.359 198.02 271.92C196.925 272.227 185.159 272.382 162.863 272.383C126.625 272.385 127.656 272.448 125.145 270.087C122.871 267.949 122.918 268.504 122.918 243.613V220.438L124.215 217.269C128.241 207.437 130.69 193.837 129.82 186.139C129.585 184.057 129.089 181.182 128.718 179.751C127.939 176.746 125.648 172.412 124.032 170.888L122.918 169.836L122.925 142.251L122.932 114.666L123.894 112.963C125.478 110.16 127.752 109.242 133.11 109.242H137.566V111.55ZM181.941 110.992C181.941 113.186 180.989 115.537 179.852 116.15C179.274 116.461 173.645 116.618 163.072 116.618H147.162L146.026 115.475C145.057 114.499 144.89 113.957 144.89 111.786V109.242H163.416H181.941V110.992ZM220.38 161.328C223.987 162.337 226.26 165.963 225.689 169.797C225.212 172.999 222.912 174.942 216.599 177.476C213.769 178.611 211.308 179.539 211.13 179.537C210.952 179.534 210.807 175.916 210.807 171.495V163.457L211.992 162.983C217.602 160.739 217.996 160.662 220.38 161.328ZM115.432 173.2C118.226 174.51 120.456 177.376 121.678 181.226C122.971 185.299 123.272 194.004 122.299 199.208C120.776 207.357 116.522 218.111 113.695 220.958C112.555 222.106 112.147 222.888 112.147 223.925C112.147 225.671 113.084 227.077 114.487 227.431L115.554 227.701L115.681 247.982L115.809 268.263L116.959 270.735C118.348 273.718 121.089 276.557 124 278.026L126.149 279.111L155.338 279.231C172.421 279.301 184.526 279.514 184.526 279.745C184.526 280.318 179.932 283.866 174.673 287.355C170.919 289.845 169.852 290.8 168.755 292.655C167.111 295.435 166.871 297.26 166.866 307.008C166.862 314.395 166.846 314.529 165.805 315.577L164.747 316.642H141.343C115.309 316.642 116.46 316.774 115.613 313.701C115.368 312.813 115.167 309.341 115.165 305.985C115.163 301.234 114.967 299.133 114.28 296.489C113.102 291.959 112.57 290.967 105.809 280.696C102.613 275.84 99.5435 270.861 98.9886 269.632C97.2502 265.779 96.9077 262.277 97.2631 251.993C97.4402 246.862 97.7301 235.049 97.9072 225.742C98.1282 214.131 98.4005 208.276 98.7744 207.085C99.0743 206.13 100.356 202.909 101.624 199.926C104.284 193.662 105.67 188.707 107.141 180.196C108.065 174.853 108.325 174.017 109.331 173.145C110.801 171.871 112.632 171.887 115.432 173.2ZM225.325 202.571C230.388 205.039 230.766 212.264 226.004 215.553C224.52 216.578 224.089 216.637 217.191 216.775C210.429 216.911 209.804 216.856 207.974 215.963C203.594 213.828 202.298 208.303 205.282 204.484C207.102 202.153 208.999 201.681 216.595 201.671C222.696 201.662 223.667 201.762 225.325 202.571ZM220.037 224.205C222.358 224.747 223.769 225.882 224.945 228.154C226.855 231.845 225.427 236.09 221.574 238.171C219.59 239.242 210.769 239.334 208.331 238.308C205.232 237.004 203.81 234.848 203.76 231.379C203.71 227.885 205.926 225.005 209.29 224.193C211.179 223.737 218.064 223.744 220.037 224.205ZM218.101 246.987C219.772 247.857 221.458 249.97 222.038 251.921C222.968 255.045 220.933 259.212 217.842 260.512C217.048 260.846 214.921 261.104 212.961 261.104C208.941 261.104 207.146 260.486 205.521 258.54C202.47 254.889 203.386 249.722 207.537 247.172C209.251 246.12 216.202 245.998 218.101 246.987ZM146.5 258.175C145.377 259.034 144.844 260.926 145.348 262.262C146.219 264.568 146.049 264.547 163.327 264.562L179.396 264.575L180.453 263.51C181.12 262.839 181.511 261.949 181.511 261.104C181.511 260.259 181.12 259.37 180.453 258.698L179.396 257.633H163.302C151.093 257.633 147.038 257.764 146.5 258.175ZM124.364 302.918C122.828 304.249 122.722 306.659 124.136 308.083C124.959 308.912 125.559 309.049 128.352 309.049C131.387 309.049 131.68 308.966 132.649 307.832C133.221 307.162 133.682 306.088 133.675 305.445C133.647 303.047 131.846 301.89 128.14 301.89C126.037 301.89 125.328 302.083 124.364 302.918ZM143.382 302.414C141.152 303.702 140.767 306.305 142.555 307.998C143.635 309.019 143.86 309.049 150.514 309.049C157.019 309.049 157.408 309.001 158.32 308.083C159.734 306.659 159.628 304.249 158.092 302.918C156.958 301.936 156.623 301.891 150.574 301.903C146.625 301.911 143.92 302.104 143.382 302.414Z" fill="#20222B"/>
<path d="M161.317 157.657C150.784 157.657 139.843 161.989 139.843 167.351C139.843 172.301 149.25 177.045 161.726 177.045C168.986 177.045 182.177 173.539 182.177 167.351C182.279 161.886 172.054 157.657 161.317 157.657ZM161.419 173.23C153.954 173.23 148.432 170.136 148.432 166.836C148.432 163.329 155.181 160.442 160.192 160.442C162.032 156.214 173.587 162.504 173.587 166.836C173.69 170.858 165.816 173.23 161.419 173.23Z" fill="#DA8433"/>
<path d="M159.783 162.608C148.023 163.536 146.899 169.723 159.169 171.167L159.783 162.608Z" fill="#DA8433"/>
<path d="M163.055 161.061C162.339 160.854 161.93 161.061 161.93 161.679L161.214 171.064C162.339 171.27 164.691 170.961 166.123 170.548L166.532 162.195L163.055 161.061ZM164.896 167.455C164.896 167.97 164.487 168.383 163.975 168.383H163.873C163.362 168.383 162.953 167.97 162.953 167.455V166.32C162.953 165.804 163.362 165.392 163.873 165.392H163.975C164.487 165.392 164.896 165.804 164.896 166.32V167.455Z" fill="#DA8433"/>
<path d="M168.475 163.226C172.872 166.114 172.463 168.383 168.168 169.93L168.475 163.226Z" fill="#DA8433"/>
<path d="M175.735 176.426C163.873 181.273 146.183 179.211 139.843 172.198V183.027C140.047 184.986 141.07 186.43 142.706 187.564V182.923C142.706 181.583 144.751 181.583 144.751 182.923V188.905L148.535 190.555V185.708C148.535 184.367 150.58 184.47 150.58 185.708V191.174L155.284 192.102V186.842C155.284 185.295 157.329 185.295 157.329 186.842V191.586C163.055 187.77 169.293 182.408 175.735 176.426Z" fill="#DA8433"/>
<path d="M179.621 160.339C186.063 163.433 190.562 174.776 186.369 184.573L184.938 182.614C183.915 181.48 182.381 182.82 183.506 184.058L185.245 186.43L182.177 190.658L179.621 187.667C178.393 186.43 177.064 187.977 178.189 189.111L180.95 192.102L177.166 196.227L173.383 193.03C172.258 191.895 170.929 193.339 172.054 194.37L175.939 197.774L171.951 201.589L167.657 197.877C166.429 196.639 165.1 197.98 166.327 199.217L170.52 202.93L166.429 206.539C166.327 205.405 165.918 204.374 164.998 203.549C164.078 202.724 163.157 202.208 162.135 202.414C160.703 202.724 159.987 202.414 159.374 201.795C158.351 200.455 158.965 199.939 157.84 198.495C156.92 197.258 155.795 196.949 154.875 197.052H153.341L163.055 189.833L169.906 184.367C178.087 176.839 191.175 168.279 179.621 160.339Z" fill="#DA8433"/>
<path d="M163.771 205.096C162.85 204.271 162.032 204.374 161.01 204.477C159.885 204.58 158.76 203.961 158.147 203.239C156.511 201.486 157.431 200.97 156.408 199.63C155.284 198.186 153.443 199.733 151.296 198.392L148.841 200.042C147.819 200.867 147.614 202.105 148.432 202.93L158.249 210.871C159.067 211.386 159.885 211.592 160.703 210.974L164.896 207.674C164.282 206.952 164.589 205.921 163.771 205.096ZM158.965 207.777C158.658 208.189 158.044 208.292 157.635 207.88L152.727 203.961C152.318 203.652 152.216 203.033 152.625 202.621C153.034 202.208 153.545 202.105 153.954 202.517L158.863 206.436C159.169 206.849 159.272 207.467 158.965 207.777Z" fill="#DA8433"/>
<path fill-rule="evenodd" clip-rule="evenodd" d="M40.8844 95.0741C40.6062 95.1369 40.2131 95.2692 40.0108 95.3681C39.6565 95.5412 38.2155 96.8541 38.3096 96.9181C38.3349 96.9354 38.8436 97.1944 39.44 97.4936C41.8977 98.727 44.2849 100.631 46.0523 102.767C47.3996 104.396 48.8591 106.842 49.5294 108.596C49.647 108.903 49.7581 109.173 49.7763 109.196C49.8382 109.274 51.1897 107.853 51.4559 107.431C52.0952 106.417 52.1616 105.216 51.6406 104.088C51.3853 103.536 51.0056 103.117 47.7533 99.8053C45.7709 97.7864 43.9109 95.9545 43.6199 95.7342C42.7836 95.101 41.8076 94.8655 40.8844 95.0741ZM28.6081 97.4631C21.4833 98.2273 15.3435 103.16 12.9901 110.01C12.3047 112.005 11.9988 113.91 12 116.177C12.0016 119.123 12.5573 121.623 13.7942 124.248C14.747 126.271 15.8093 127.783 17.4297 129.425C20.3102 132.344 23.6799 134.074 27.8725 134.787C28.6709 134.923 29.8607 134.949 36.9056 134.984C45.5293 135.027 45.9323 135.011 46.8389 134.591C47.4511 134.307 48.2277 133.567 48.5584 132.951C49.0765 131.987 49.0662 132.174 49.0674 123.629C49.0682 118.732 49.0316 115.377 48.9711 114.778C48.5067 110.183 46.4045 105.78 43.1687 102.623C39.2705 98.82 33.8535 96.9003 28.6081 97.4631ZM31.783 105.293C33.4909 105.508 34.9921 106.06 36.4267 107.002C37.5178 107.718 39.0089 109.255 39.682 110.357C43.5371 116.672 40.2822 124.901 33.187 126.778C31.9876 127.095 29.9243 127.181 28.6986 126.964C26.3886 126.557 24.308 125.421 22.6682 123.674C21.7961 122.744 21.3072 122.019 20.7398 120.813C20.0769 119.404 19.8182 118.301 19.7584 116.631C19.7045 115.122 19.7949 114.315 20.1617 113.031C21.6009 107.99 26.6265 104.644 31.783 105.293ZM28.976 107.382C25.5675 108.02 22.8426 110.602 21.9793 114.011C21.5878 115.558 21.6471 117.315 22.144 118.891C22.5486 120.174 23.1714 121.232 24.1272 122.258C26.0328 124.305 28.5861 125.286 31.3365 125.029C35.7013 124.621 39.0843 121.022 39.2956 116.562C39.3788 114.805 38.9299 113.039 38.0141 111.52C37.3928 110.489 36.1194 109.198 35.1019 108.569C33.2951 107.451 30.9923 107.005 28.976 107.382ZM57.6534 120.656C57.2138 120.845 57.1607 121.064 57.1607 122.685V124.202H54.1262H51.0916L51.0906 127.812C51.09 129.798 51.0639 131.58 51.0326 131.772L50.9755 132.121H54.6534C58.2194 132.121 58.3386 132.115 58.5705 131.931C58.702 131.826 58.8522 131.585 58.9042 131.395C59.0302 130.935 59.0327 121.763 58.9069 121.304C58.8563 121.12 58.7375 120.898 58.6429 120.811C58.4346 120.62 57.9231 120.54 57.6534 120.656Z" fill="#20222B"/>
<path fill-rule="evenodd" clip-rule="evenodd" d="M87.1731 28.4503C85.7523 29.3763 85.1683 31.6392 85.8268 33.6673C86.1425 34.6397 100.514 66.9194 101.026 67.8047C102.115 69.6903 104.155 70.7271 105.875 70.2691C106.669 70.0575 120.702 63.8097 121.391 63.3609C122.886 62.3864 123.478 60.1856 122.804 58.1083C122.488 57.1359 108.117 24.8563 107.605 23.971C106.509 22.074 104.486 21.0458 102.756 21.5065C102.024 21.7015 87.8096 28.0354 87.1731 28.4503ZM98.2551 26.095C98.6311 26.9396 97.7819 27.2053 97.7819 27.2053L96.2926 27.8683L94.8111 28.5279C94.8111 28.5279 94.0502 28.8667 93.7159 28.1159C93.3816 27.3651 94.1426 27.0263 94.1426 27.0263L95.6241 26.3667L97.1133 25.7036C97.1133 25.7036 97.879 25.2503 98.2551 26.095ZM116.578 60.2202C116.578 60.2202 117.344 59.7668 117.72 60.6115C118.096 61.4562 117.247 61.7218 117.247 61.7218C117.247 61.7218 113.074 63.5798 112.344 63.9045C111.587 64.2418 107.43 66.0927 107.43 66.0927C107.43 66.0927 106.669 66.4315 106.334 65.6807C106 64.9299 106.761 64.5911 106.761 64.5911L116.578 60.2202Z" fill="#20222B"/>
<path fill-rule="evenodd" clip-rule="evenodd" d="M220.763 28.1237C220.036 28.312 219.2 28.7604 218.636 29.2646C218.229 29.6283 217.809 30.1839 216.77 31.7351L215.43 33.7364L212.741 33.7646C210.239 33.7908 210.016 33.805 209.518 33.9695C208.045 34.4563 206.798 35.6511 206.314 37.0409C206.003 37.9318 205.981 38.7352 206.009 47.9604C206.039 57.7996 206.008 57.2048 206.562 58.3273C207.122 59.4587 208.273 60.4478 209.458 60.8154L210.053 61H227H243.947L244.542 60.8154C245.727 60.4478 246.878 59.4587 247.438 58.3273C247.992 57.2048 247.961 57.7996 247.991 47.9604C248.019 38.7352 247.997 37.9318 247.686 37.0409C247.202 35.6511 245.955 34.4563 244.482 33.9695C243.984 33.805 243.761 33.7908 241.259 33.7646L238.57 33.7364L237.23 31.7351C235.736 29.5042 235.277 29.0063 234.264 28.5185C233.154 27.9842 233.315 27.9955 226.962 28.0014C222.227 28.0058 221.135 28.0273 220.763 28.1237ZM228.723 34.8438C233.642 35.6309 237.339 39.2398 238.199 44.0921C238.359 44.9947 238.362 46.7668 238.204 47.7174C237.658 51.0129 235.602 53.9191 232.624 55.6039C229.169 57.5582 224.831 57.5582 221.376 55.6039C218.389 53.9141 216.404 51.0983 215.801 47.6982C215.654 46.8714 215.635 45.0934 215.763 44.2504C216.501 39.4005 220.314 35.6131 225.236 34.84C226.163 34.6943 227.801 34.6961 228.723 34.8438ZM243.078 37.9836C243.841 38.4823 243.973 39.5956 243.347 40.256C242.968 40.6556 242.719 40.7117 241.32 40.7117C240.228 40.7117 239.998 40.6894 239.738 40.5583C239.005 40.1893 238.707 39.38 239.026 38.6265C239.196 38.2262 239.37 38.0452 239.762 37.8645C240.047 37.7328 240.263 37.7157 241.41 37.7342C242.702 37.7551 242.736 37.76 243.078 37.9836ZM225.728 39.8739C223.688 40.3033 221.983 41.7182 221.2 43.6309C220.854 44.4763 220.742 45.1825 220.79 46.2191C220.837 47.2332 220.979 47.7885 221.408 48.6403C222.506 50.8195 224.875 52.1743 227.325 52.0241C228.299 51.9645 228.908 51.807 229.749 51.3967C231.81 50.3923 233.097 48.4663 233.215 46.2131C233.268 45.1921 233.156 44.4687 232.818 43.6334C231.698 40.8708 228.656 39.2577 225.728 39.8739Z" fill="#20222B"/>
<g clip-path="url(#clip0_128_1405)">
<path d="M319.326 90.1704L317.593 88.437L314.896 91.037C313.837 92.0963 312.681 90.7481 313.644 89.7852L316.244 87.1852L313.933 85.1629L312.393 87.0889C311.622 87.9555 310.274 86.9926 311.141 85.837L312.393 84.1037L309.696 82.4666L308.733 84.5852C308.156 85.7407 306.518 85.0666 307.193 83.7185L308.059 81.7926L305.17 80.7333L304.496 83.0444C304.111 84.3926 302.474 83.9111 302.763 82.4666L303.341 80.3481L300.355 79.7704L300.067 81.8889C299.97 83.4296 298.141 83.1407 298.237 81.7926L298.43 79.5778H295.348L295.444 81.8889C295.541 83.3333 293.711 83.4296 293.615 81.9852L293.518 79.7704L290.341 80.3481L290.822 82.2741C291.304 83.9111 289.474 84.3926 289.089 82.8518L288.511 80.8296L285.526 81.9852L286.489 83.9111C287.067 85.1629 285.526 85.9333 284.948 84.7778L283.985 82.7555L281.289 84.2963L282.444 85.7407C283.407 86.8963 281.963 87.9555 281 86.8L279.748 85.1629L277.437 87.1852L280.037 89.7852C281 90.7481 279.941 92.0963 278.785 91.037L276.185 88.437L274.163 90.7481L275.896 92C276.956 92.7704 276.089 94.2148 274.933 93.4444L273.104 92.1926L271.563 94.8889L273.585 95.8518C274.741 96.7185 274.259 98.1629 272.815 97.6815L270.696 96.7185L269.637 99.6074L271.659 100.185C273.007 100.667 272.815 102.304 271.178 101.918L269.156 101.437L268.674 104.518L270.985 104.711C272.333 104.904 272.333 106.541 270.889 106.541L268.385 106.348V109.43L270.889 109.237C272.044 109.141 272.333 110.778 271.178 111.067L268.77 111.259L269.252 114.341L271.37 113.763C272.622 113.474 273.296 115.015 272.044 115.496L269.733 116.074L270.793 119.059L272.815 118.096C273.97 117.615 274.644 119.059 273.778 119.637L271.563 120.696L273.104 123.393L275.03 122.044C275.993 121.37 277.148 122.526 276.185 123.489L274.163 124.933L276.185 127.341L278.881 124.644C279.748 123.874 281.096 124.933 280.23 125.896L277.437 128.593L278.978 130.133C279.748 130.807 280.807 130.807 281.674 130.037L319.037 92.6741C319.711 91.8074 320 90.8444 319.326 90.1704ZM281.674 113.474C276.185 101.052 288.607 86.8963 302.378 92.6741L281.674 113.474Z" fill="#20222B"/>
</g>
<defs>
<clipPath id="clip0_128_1405">
<rect width="52" height="52" fill="white" transform="translate(268 79)"/>
</clipPath>
</defs>
</svg>
