<svg width="328" height="344" viewBox="0 0 328 344" fill="none" xmlns="http://www.w3.org/2000/svg">
<path fill-rule="evenodd" clip-rule="evenodd" d="M111.082 113.074C109.897 113.665 108.284 114.899 107.499 115.817C104.965 118.778 104.784 119.909 104.784 132.788V144.311H95.073C84.7177 144.311 82.2257 144.612 78.9692 146.253C73.0791 149.22 69.9999 154.675 69.9999 162.139V165.734L67.9575 165.976C64.1259 166.43 60.5386 169.154 58.8511 172.891C58.1558 174.43 58.0076 175.628 58.0001 179.776C57.9902 185.262 58.4751 187.351 60.3208 189.771L61.3916 191.176L60.5452 192.078C58.6022 194.148 58.0097 196.395 58.0001 201.729C57.9902 207.222 58.4747 209.302 60.3311 211.737C61.8513 213.73 64.7789 215.469 67.5977 216.051L69.9999 216.547V247.134V277.72L71.0165 278.737C71.5755 279.296 72.3209 279.753 72.6729 279.753C73.188 279.753 73.3126 280.309 73.3126 282.608C73.3126 285.303 73.2551 285.477 72.2828 285.721C70.0665 286.277 69.9054 287.138 70.0872 297.448C70.2463 306.476 70.3009 307.004 71.3519 309.683C73.7574 315.814 78.3261 320.401 84.584 322.968L86.7708 323.865L162.758 323.975C215.989 324.052 239.392 323.951 240.906 323.638C246.338 322.513 252.521 317.726 255.25 312.532C258.096 307.114 257.987 309.181 257.994 260.473L258 216.547L260.402 216.051C264.672 215.169 268.166 212.14 269.529 208.139C270.191 206.197 270.114 197.519 269.418 195.567C269.113 194.712 268.367 193.362 267.76 192.565L266.655 191.117L267.852 189.356C269.683 186.663 270.01 185.202 270 179.767C269.992 175.628 269.844 174.43 269.149 172.891C267.461 169.154 263.874 166.43 260.042 165.976L258 165.734V162.358C258 154.759 254.906 149.213 249.008 146.241C245.776 144.613 243.266 144.311 232.927 144.311H223.216V132.866C223.216 125.557 223.047 120.855 222.748 119.858C221.996 117.346 219.537 114.459 217.04 113.154C214.814 111.991 214.765 111.986 207.94 112.098L201.078 112.211L200.241 113.541C199.44 114.817 199.294 114.872 196.714 114.872C194.133 114.872 193.987 114.817 193.185 113.541L192.349 112.211L152.793 112.106L113.237 112L111.082 113.074ZM200.026 139.755V144.311H164H127.973V139.755V135.199H164H200.026V139.755Z" fill="#4A4B4E"/>
<path fill-rule="evenodd" clip-rule="evenodd" d="M111.082 113.074C109.897 113.665 108.284 114.899 107.499 115.817C104.965 118.778 104.784 119.909 104.784 132.788V144.311H95.073C84.7177 144.311 82.2257 144.612 78.9692 146.253C73.0791 149.22 69.9999 154.675 69.9999 162.139V165.734L67.9575 165.976C64.1259 166.43 60.5386 169.154 58.8511 172.891C58.1558 174.43 58.0076 175.628 58.0001 179.776C57.9902 185.262 58.4751 187.351 60.3208 189.771L61.3916 191.176L60.5452 192.078C58.6022 194.148 58.0097 196.395 58.0001 201.729C57.9902 207.222 58.4747 209.302 60.3311 211.737C61.8513 213.73 64.7789 215.469 67.5977 216.051L69.9999 216.547V247.134V277.72L71.0583 278.779C71.6476 279.368 72.4281 279.756 72.8182 279.654C73.4323 279.494 73.5197 279.867 73.5197 282.653C73.5197 285.439 73.4323 285.812 72.8182 285.651C72.4244 285.548 71.6364 285.948 71.0198 286.565L69.9228 287.662L70.0872 297.273C70.2454 306.496 70.2964 306.996 71.3511 309.683C73.7586 315.816 78.3265 320.401 84.584 322.968L86.7708 323.865L162.758 323.975C215.989 324.052 239.392 323.951 240.906 323.638C246.338 322.513 252.521 317.726 255.25 312.532C258.096 307.114 257.987 309.181 257.994 260.473L258 216.547L260.402 216.051C264.672 215.169 268.166 212.14 269.529 208.139C270.191 206.197 270.114 197.519 269.418 195.567C269.113 194.712 268.367 193.362 267.76 192.565L266.655 191.117L267.852 189.356C269.683 186.663 270.01 185.202 270 179.767C269.992 175.628 269.844 174.43 269.149 172.891C267.461 169.154 263.874 166.43 260.042 165.976L258 165.734V162.358C258 154.759 254.906 149.213 249.008 146.241C245.776 144.613 243.266 144.311 232.927 144.311H223.216V132.866C223.216 125.557 223.047 120.855 222.748 119.858C221.996 117.346 219.537 114.459 217.04 113.154C214.816 111.992 214.762 111.986 207.976 112.098L201.15 112.211L200.334 113.305C199.619 114.264 199.579 114.583 200.012 115.897C200.284 116.721 200.853 117.58 201.275 117.806C201.697 118.032 204.338 118.217 207.142 118.218C212.791 118.218 214.362 118.686 215.94 120.835C216.758 121.95 216.797 122.528 216.797 133.261V144.518L214.934 144.657C213.909 144.733 211.533 144.669 209.654 144.516L206.238 144.237V137.44C206.238 131.195 206.17 130.575 205.41 129.815C204.593 128.997 204.03 128.986 164 128.986C123.97 128.986 123.407 128.997 122.59 129.815C121.827 130.578 121.762 131.195 121.762 137.684V144.726L118.76 144.722C117.108 144.72 114.779 144.601 113.584 144.457L111.41 144.196V132.895V121.594L112.471 120.332C113.056 119.638 114.22 118.879 115.059 118.646C116.047 118.372 129.818 118.216 154.062 118.206C194.964 118.189 192.554 118.339 193.456 115.752C193.854 114.61 193.802 114.255 193.099 113.313L192.276 112.211L152.756 112.106L113.237 112L111.082 113.074ZM200.026 139.755V144.311H164H127.973V139.755V135.199H164H200.026V139.755ZM76.5128 164.503C76.4238 165.358 76.3505 164.659 76.3505 162.95C76.3505 161.242 76.4238 160.543 76.5128 161.397C76.6022 162.251 76.6022 163.649 76.5128 164.503ZM251.676 164.503C251.587 165.358 251.514 164.659 251.514 162.95C251.514 161.242 251.587 160.543 251.676 161.397C251.765 162.251 251.765 163.649 251.676 164.503ZM260.974 173.023C262.975 174.382 263.534 175.715 263.696 179.518C263.872 183.62 263.228 185.333 260.941 186.862L259.534 187.802L164.249 187.801C74.3524 187.801 68.8843 187.76 67.5447 187.076C64.9806 185.769 64.4091 184.517 64.412 180.213C64.4149 176.156 64.9951 174.497 66.8386 173.271C68.2867 172.309 76.6623 172.226 170.833 172.248C256.217 172.269 259.909 172.301 260.974 173.023ZM91.1188 201.885V209.754L80.0417 209.753C67.8582 209.753 67.0867 209.616 65.2671 207.135C64.5462 206.152 64.41 205.359 64.412 202.165C64.4149 198.108 64.9951 196.449 66.8386 195.223C67.6954 194.654 72.8261 194.363 86.6673 194.1L91.1188 194.015V201.885ZM190.088 201.885V209.754H164H137.912V201.885V194.015H164H190.088V201.885ZM260.734 194.926C262.784 196.049 263.509 197.551 263.715 201.101C263.931 204.844 263.416 206.686 261.691 208.34L260.432 209.547L248.656 209.669L236.881 209.791V201.878V193.966L248.165 194.094C257.841 194.204 259.632 194.322 260.734 194.926ZM119.771 205.094C116.739 205.165 111.895 205.164 109.004 205.093C106.114 205.022 108.594 204.964 114.515 204.965C120.437 204.965 122.802 205.023 119.771 205.094ZM218.74 205.094C215.709 205.165 210.864 205.164 207.973 205.093C205.083 205.022 207.563 204.964 213.485 204.965C219.406 204.965 221.771 205.023 218.74 205.094ZM101.781 223.088C101.71 226.12 101.652 223.754 101.652 217.831C101.651 211.908 101.709 209.427 101.781 212.319C101.851 215.21 101.852 220.056 101.781 223.088ZM200.75 223.088C200.679 226.12 200.621 223.754 200.621 217.831C200.621 211.908 200.679 209.427 200.75 212.319C200.821 215.21 200.821 220.056 200.75 223.088ZM127.455 223.136C127.383 225.914 127.325 223.526 127.325 217.831C127.325 212.136 127.384 209.864 127.455 212.781C127.526 215.699 127.526 220.359 127.455 223.136ZM226.424 223.136C226.352 225.914 226.294 223.526 226.294 217.831C226.294 212.136 226.353 209.864 226.424 212.781C226.496 215.699 226.495 220.359 226.424 223.136ZM120.934 217.831V224.251H114.515H108.097V217.831V211.411H114.515H120.934V217.831ZM219.903 217.831V224.251H213.485H207.066V217.831V211.411H213.485H219.903V217.831ZM83.9756 216.277L76.6254 216.4L76.5248 246.938L76.4238 277.475L76.314 247.239C76.2536 230.609 76.2929 216.77 76.4018 216.485C76.5517 216.093 78.3833 215.99 83.9628 216.06L91.3259 216.154L83.9756 216.277ZM177.148 216.277C169.916 216.341 158.083 216.341 150.852 216.277C143.621 216.214 149.538 216.162 164 216.162C178.462 216.162 184.379 216.214 177.148 216.277ZM251.584 259.354L251.587 302.534L251.479 259.467L251.371 216.4L244.126 216.272L236.88 216.145L244.231 216.159L251.582 216.174L251.584 259.354ZM119.819 230.773C117.043 230.845 112.384 230.845 109.467 230.774C106.55 230.703 108.821 230.644 114.515 230.644C120.209 230.643 122.596 230.702 119.819 230.773ZM218.788 230.773C216.012 230.845 211.353 230.845 208.436 230.774C205.519 230.703 207.791 230.644 213.485 230.644C219.178 230.643 221.565 230.702 218.788 230.773ZM95.2598 237.298C95.7948 237.868 96.1393 238.334 96.0255 238.334C95.9116 238.334 95.3807 237.868 94.8457 237.298C94.3107 236.729 93.9662 236.263 94.08 236.263C94.1939 236.263 94.7248 236.729 95.2598 237.298ZM194.229 237.298C194.764 237.868 195.109 238.334 194.995 238.334C194.881 238.334 194.35 237.868 193.815 237.298C193.28 236.729 192.935 236.263 193.049 236.263C193.163 236.263 193.694 236.729 194.229 237.298ZM134.599 236.834C134.599 236.919 134.273 237.246 133.874 237.558C133.218 238.073 133.203 238.059 133.718 237.402C134.259 236.712 134.599 236.493 134.599 236.834ZM233.568 236.834C233.568 236.919 233.242 237.246 232.844 237.558C232.187 238.073 232.172 238.059 232.687 237.402C233.228 236.712 233.568 236.493 233.568 236.834ZM128.275 253.909C128.138 254.047 127.781 254.062 127.482 253.942C127.152 253.81 127.25 253.712 127.732 253.692C128.169 253.674 128.413 253.772 128.275 253.909ZM134.073 253.909C133.935 254.047 133.578 254.062 133.279 253.942C132.949 253.81 133.047 253.712 133.529 253.692C133.966 253.674 134.21 253.772 134.073 253.909ZM194.945 253.909C194.808 254.047 194.45 254.062 194.152 253.942C193.821 253.81 193.919 253.712 194.402 253.692C194.838 253.674 195.083 253.772 194.945 253.909ZM200.742 253.909C200.605 254.047 200.248 254.062 199.949 253.942C199.619 253.81 199.717 253.712 200.199 253.692C200.636 253.674 200.88 253.772 200.742 253.909ZM114.308 259.614C114.308 259.7 113.982 260.026 113.584 260.339C112.927 260.854 112.912 260.84 113.427 260.183C113.968 259.493 114.308 259.273 114.308 259.614ZM215.555 261.115C216.445 262.026 217.079 262.771 216.966 262.771C216.852 262.771 216.03 262.026 215.141 261.115C214.252 260.203 213.617 259.458 213.731 259.458C213.844 259.458 214.666 260.203 215.555 261.115ZM135.461 260.631C140.381 261.916 145.364 265.75 147.464 269.867C148.95 272.782 148.547 272.712 163.912 272.712C172.277 272.712 178.023 272.55 178.489 272.3C178.912 272.073 179.932 270.78 180.754 269.426C184.786 262.788 192.658 259.033 200.119 260.188C203.675 260.738 208.348 262.945 210.357 265.023L211.783 266.499L206.63 266.508C202.344 266.516 201.162 266.659 199.612 267.361C197.11 268.494 195.564 270.016 194.388 272.505C193.535 274.308 193.409 275.192 193.409 279.339C193.409 283.486 193.535 284.37 194.388 286.173C195.564 288.662 197.11 290.184 199.612 291.317C201.162 292.019 202.344 292.163 206.63 292.17L211.783 292.179L210.357 293.655C208.348 295.733 203.675 297.94 200.119 298.49C192.658 299.646 184.786 295.89 180.754 289.253C179.932 287.898 178.912 286.605 178.489 286.378C178.023 286.129 172.277 285.966 163.912 285.966C148.45 285.966 148.962 285.873 147.379 288.978C146.898 289.921 145.456 291.737 144.175 293.014C139.834 297.341 133.722 299.395 127.881 298.49C124.325 297.94 119.652 295.733 117.643 293.655L116.216 292.179L121.37 292.17C125.462 292.163 126.865 292.005 128.181 291.406C130.672 290.27 132.346 288.669 133.532 286.289C134.494 284.357 134.599 283.676 134.599 279.339C134.599 275.003 134.494 274.322 133.532 272.389C132.346 270.009 130.672 268.409 128.181 267.272C126.865 266.673 125.462 266.515 121.37 266.508L116.216 266.499L117.643 265.023C119.311 263.298 124.062 260.842 126.731 260.324C129.65 259.758 132.501 259.858 135.461 260.631ZM180.15 260.421C180.15 260.495 179.637 261.008 179.011 261.56L177.872 262.564L178.876 261.425C179.814 260.361 180.15 260.096 180.15 260.421ZM111.824 262.1C111.824 262.185 111.498 262.512 111.099 262.824C110.442 263.339 110.428 263.325 110.942 262.668C111.484 261.978 111.824 261.759 111.824 262.1ZM127.352 273.955C127.764 274.41 128.009 274.783 127.895 274.783C127.781 274.783 127.35 274.41 126.938 273.955C126.526 273.499 126.282 273.126 126.396 273.126C126.51 273.126 126.94 273.499 127.352 273.955ZM201.683 273.269C201.683 273.348 201.264 273.767 200.751 274.201L199.819 274.99L200.608 274.058C201.349 273.183 201.683 272.938 201.683 273.269ZM127.973 284.038C127.973 284.117 127.554 284.536 127.042 284.97L126.11 285.759L126.899 284.827C127.64 283.952 127.973 283.707 127.973 284.038ZM201.062 284.724C201.474 285.179 201.718 285.552 201.604 285.552C201.49 285.552 201.06 285.179 200.648 284.724C200.236 284.268 199.991 283.895 200.105 283.895C200.219 283.895 200.65 284.268 201.062 284.724ZM76.5202 298.889C76.4449 301.008 76.3828 299.386 76.3823 295.286C76.3819 291.185 76.4436 289.452 76.5194 291.433C76.5952 293.415 76.5956 296.77 76.5202 298.889ZM111.463 296.218C111.977 296.875 111.963 296.889 111.306 296.374C110.616 295.833 110.397 295.493 110.738 295.493C110.824 295.493 111.15 295.819 111.463 296.218ZM217.004 296.03C217.004 296.098 216.212 296.89 215.245 297.79L213.485 299.428L215.122 297.667C216.644 296.03 217.004 295.716 217.004 296.03ZM179.322 297.357C179.857 297.926 180.201 298.392 180.087 298.392C179.973 298.392 179.442 297.926 178.907 297.357C178.372 296.787 178.028 296.321 178.142 296.321C178.256 296.321 178.787 296.787 179.322 297.357ZM113.947 298.703C114.462 299.36 114.447 299.374 113.791 298.859C113.101 298.318 112.882 297.978 113.223 297.978C113.308 297.978 113.635 298.304 113.947 298.703ZM128.275 304.855C128.138 304.993 127.781 305.008 127.482 304.888C127.152 304.756 127.25 304.658 127.732 304.638C128.169 304.62 128.413 304.718 128.275 304.855ZM134.073 304.855C133.935 304.993 133.578 305.008 133.279 304.888C132.949 304.756 133.047 304.658 133.529 304.638C133.966 304.62 134.21 304.718 134.073 304.855ZM194.945 304.855C194.808 304.993 194.45 305.008 194.152 304.888C193.821 304.756 193.919 304.658 194.402 304.638C194.838 304.62 195.083 304.718 194.945 304.855ZM200.742 304.855C200.605 304.993 200.248 305.008 199.949 304.888C199.619 304.756 199.717 304.658 200.199 304.638C200.636 304.62 200.88 304.718 200.742 304.855ZM91.2224 317.719C90.9379 317.834 90.472 317.834 90.1871 317.719C89.9026 317.605 90.1353 317.511 90.7047 317.511C91.2741 317.511 91.5073 317.605 91.2224 317.719Z" fill="#DA8433"/>
<path fill-rule="evenodd" clip-rule="evenodd" d="M111.082 113.074C109.897 113.665 108.284 114.899 107.499 115.817C104.965 118.778 104.784 119.909 104.784 132.788V144.311H95.073C84.7177 144.311 82.2257 144.612 78.9692 146.253C73.0791 149.22 69.9999 154.675 69.9999 162.139V165.734L67.9575 165.976C64.1259 166.43 60.5386 169.154 58.8511 172.891C58.1558 174.43 58.0076 175.628 58.0001 179.776C57.9902 185.262 58.4751 187.351 60.3208 189.771L61.3916 191.176L60.5452 192.078C58.6022 194.148 58.0097 196.395 58.0001 201.729C57.9902 207.222 58.4747 209.302 60.3311 211.737C61.8513 213.73 64.7789 215.469 67.5977 216.051L69.9999 216.547V247.134V277.72L71.0165 278.737C71.5755 279.296 72.2335 279.753 72.4791 279.753C72.9176 279.753 75.7045 278.672 75.8941 278.428C75.9475 278.36 76.0871 264.325 76.2047 247.239L76.4184 216.174L83.7686 216.061L91.1188 215.948L91.1818 222.895C91.2166 226.716 91.2741 230.029 91.3101 230.257C91.5578 231.837 92.8812 235.02 93.2904 235.02C93.4626 235.02 93.6034 235.188 93.6034 235.393C93.6034 235.771 96.4218 238.748 96.78 238.748C96.8876 238.748 97.2545 239.027 97.5957 239.368C97.9374 239.71 98.7159 240.094 99.3262 240.222C99.9366 240.35 100.747 240.622 101.126 240.826C101.505 241.03 107.42 241.196 114.27 241.195C124.271 241.194 127.012 241.074 128.178 240.587C128.976 240.253 129.63 240.082 129.63 240.207C129.63 241.026 133.565 237.844 135.682 235.313C136.338 234.529 137.153 232.949 136.901 232.949C136.785 232.949 136.893 232.436 137.14 231.81C137.769 230.22 137.8 229.822 137.859 222.491L137.912 215.967H164H190.088L190.151 222.905C190.186 226.721 190.243 230.029 190.279 230.257C190.527 231.837 191.85 235.02 192.26 235.02C192.432 235.02 192.573 235.188 192.573 235.393C192.573 235.771 195.391 238.748 195.749 238.748C195.857 238.748 196.224 239.027 196.565 239.368C196.907 239.71 197.685 240.094 198.296 240.222C198.906 240.35 199.716 240.622 200.095 240.826C200.474 241.03 206.389 241.196 213.239 241.195C223.24 241.194 225.981 241.074 227.147 240.587C227.946 240.253 228.599 240.082 228.599 240.207C228.599 241.026 232.535 237.844 234.651 235.313C235.307 234.529 236.122 232.949 235.871 232.949C235.754 232.949 235.862 232.436 236.11 231.81C236.738 230.22 236.769 229.823 236.828 222.481L236.881 215.948L244.231 216.061L251.582 216.174V259.458C251.582 283.264 251.45 303.394 251.29 304.191C250.805 306.604 250.732 306.85 250.23 307.761C249.965 308.243 249.838 308.729 249.95 308.841C250.061 308.952 249.868 309.279 249.521 309.567C249.174 309.855 248.89 310.325 248.89 310.611C248.89 311.356 244.568 315.238 242.647 316.218C241.753 316.674 241.022 316.928 241.022 316.782C241.022 316.635 240.714 316.771 240.337 317.084C239.762 317.561 227.551 317.652 164.247 317.652H88.8413L86.4457 316.685C82.4141 315.057 78.0213 310.297 77.2263 306.693C77.1236 306.228 76.9215 305.429 76.7774 304.916C76.6333 304.403 76.4002 300.256 76.2598 295.7C76.1194 291.144 75.8618 287.196 75.6879 286.928C75.514 286.66 74.7148 286.224 73.9123 285.959C72.7006 285.559 72.2811 285.59 71.4401 286.141C70.8831 286.506 70.3125 287.261 70.1725 287.819C70.0326 288.377 69.9945 292.894 70.0877 297.858C70.2483 306.43 70.3121 307.024 71.354 309.683C73.7541 315.811 78.3249 320.401 84.584 322.968L86.7708 323.865L162.758 323.975C215.989 324.052 239.392 323.951 240.906 323.638C246.338 322.513 252.521 317.726 255.25 312.532C258.096 307.114 257.987 309.181 257.994 260.473L258 216.547L260.402 216.051C264.672 215.169 268.166 212.14 269.529 208.139C270.191 206.197 270.114 197.519 269.418 195.567C269.113 194.712 268.367 193.362 267.76 192.565L266.655 191.117L267.852 189.356C269.683 186.663 270.01 185.202 270 179.767C269.992 175.628 269.844 174.43 269.149 172.891C267.461 169.154 263.874 166.43 260.042 165.976L258 165.734V162.358C258 154.759 254.906 149.213 249.008 146.241C245.776 144.613 243.266 144.311 232.927 144.311H223.216V132.866C223.216 125.557 223.047 120.855 222.748 119.858C221.996 117.346 219.537 114.459 217.04 113.154C214.816 111.992 214.762 111.986 207.976 112.098L201.15 112.211L200.334 113.305C199.619 114.264 199.579 114.583 200.012 115.897C200.284 116.721 200.853 117.58 201.275 117.806C201.697 118.032 204.338 118.217 207.142 118.218C212.791 118.218 214.362 118.686 215.94 120.835C216.758 121.95 216.797 122.528 216.797 133.261V144.518L214.934 144.657C213.909 144.733 211.533 144.669 209.654 144.516L206.238 144.237V137.44C206.238 131.195 206.17 130.575 205.41 129.815C204.593 128.997 204.03 128.986 164 128.986C123.97 128.986 123.407 128.997 122.59 129.815C121.827 130.578 121.762 131.195 121.762 137.684V144.726L118.76 144.722C117.108 144.72 114.779 144.601 113.584 144.457L111.41 144.196V132.895V121.594L112.471 120.332C113.056 119.638 114.22 118.879 115.059 118.646C116.047 118.372 129.818 118.216 154.062 118.206C194.964 118.189 192.554 118.339 193.456 115.752C193.854 114.61 193.802 114.255 193.099 113.313L192.276 112.211L152.756 112.106L113.237 112L111.082 113.074ZM200.026 139.755V144.311H164H127.973V139.755V135.199H164H200.026V139.755ZM244.725 151.547C245.364 151.878 246.003 152.031 246.146 151.888C246.289 151.746 246.405 151.846 246.405 152.112C246.405 152.378 246.577 152.595 246.788 152.595C247.265 152.595 249.718 155.02 249.718 155.492C249.718 155.683 249.915 155.906 250.155 155.985C250.395 156.065 250.66 156.5 250.744 156.952C250.828 157.403 250.926 157.773 250.96 157.773C251.182 157.773 251.489 159.881 251.668 162.64L251.876 165.85H164H76.1235L76.3256 162.64C76.4366 160.874 76.6532 158.87 76.8076 158.187C77.3712 155.687 79.734 153.024 82.5052 151.764C84.2527 150.97 85.7906 150.954 163.925 150.951C232.69 150.947 243.722 151.029 244.725 151.547ZM260.974 173.023C262.975 174.382 263.534 175.715 263.696 179.518C263.872 183.62 263.228 185.333 260.941 186.862L259.534 187.802L164.249 187.801C74.3524 187.801 68.8843 187.76 67.5447 187.076C64.9806 185.769 64.4091 184.517 64.412 180.213C64.4149 176.156 64.9951 174.497 66.8386 173.271C68.2867 172.309 76.6623 172.226 170.833 172.248C256.217 172.269 259.909 172.301 260.974 173.023ZM91.1188 201.885V209.754L80.0417 209.753C67.8582 209.753 67.0867 209.616 65.2671 207.135C64.5462 206.152 64.41 205.359 64.412 202.165C64.4149 198.108 64.9951 196.449 66.8386 195.223C67.6954 194.654 72.8261 194.363 86.6673 194.1L91.1188 194.015V201.885ZM131.394 212.032C131.34 221.828 131.279 229.843 131.259 229.843C131.239 229.843 131.16 230.172 131.083 230.573C130.903 231.519 128.2 234.222 127.254 234.403C126.853 234.48 126.431 234.56 126.317 234.581C125.313 234.769 101.852 234.567 101.329 234.367C100.952 234.222 100.643 233.959 100.643 233.782C100.643 233.605 100.303 233.371 99.8865 233.262C99.4708 233.153 98.7399 232.276 98.2633 231.312C97.4268 229.621 97.3945 228.937 97.3481 211.89L97.3001 194.222H114.396H131.493L131.394 212.032ZM190.088 201.885V209.754H164H137.912V201.885V194.015H164H190.088V201.885ZM230.364 212.032C230.309 221.828 230.248 229.843 230.228 229.843C230.208 229.843 230.129 230.172 230.053 230.573C229.872 231.519 227.17 234.222 226.223 234.403C225.822 234.48 225.4 234.56 225.286 234.581C224.283 234.769 200.821 234.567 200.298 234.367C199.921 234.222 199.612 233.959 199.612 233.782C199.612 233.605 199.272 233.371 198.856 233.262C198.44 233.153 197.709 232.276 197.233 231.312C196.396 229.621 196.364 228.937 196.317 211.89L196.269 194.222H213.366H230.463L230.364 212.032ZM260.734 194.926C262.784 196.049 263.509 197.551 263.715 201.101C263.931 204.844 263.416 206.686 261.691 208.34L260.432 209.547L248.656 209.669L236.881 209.791V201.878V193.966L248.165 194.094C257.841 194.204 259.632 194.322 260.734 194.926ZM102.616 205.612C101.915 206.184 101.848 207.127 101.767 217.52C101.718 223.728 101.818 228.807 101.989 228.807C102.159 228.807 102.299 229.065 102.299 229.38C102.299 229.695 102.719 230.069 103.231 230.211C104.424 230.54 124.575 230.549 125.761 230.221C126.253 230.085 126.766 229.571 126.902 229.08C127.23 227.893 127.221 207.738 126.892 206.544C126.75 206.032 126.377 205.612 126.062 205.612C125.747 205.612 125.489 205.472 125.489 205.302C125.489 205.131 120.514 204.991 114.433 204.991C105.221 204.991 103.251 205.095 102.616 205.612ZM201.586 205.612C200.884 206.184 200.817 207.127 200.736 217.52C200.687 223.728 200.787 228.807 200.958 228.807C201.129 228.807 201.269 229.065 201.269 229.38C201.269 229.695 201.688 230.069 202.2 230.211C203.393 230.54 223.544 230.549 224.731 230.221C225.222 230.085 225.735 229.571 225.871 229.08C226.199 227.893 226.191 207.738 225.861 206.544C225.72 206.032 225.346 205.612 225.031 205.612C224.716 205.612 224.458 205.472 224.458 205.302C224.458 205.131 219.483 204.991 213.403 204.991C204.19 204.991 202.22 205.095 201.586 205.612ZM120.934 217.831V224.251H114.515H108.097V217.831V211.411H114.515H120.934V217.831ZM219.903 217.831V224.251H213.485H207.066V217.831V211.411H213.485H219.903V217.831ZM126.01 254.112C125.5 254.302 124.568 254.543 123.939 254.646C123.311 254.749 122.75 254.872 122.694 254.919C122.637 254.967 122.45 255.045 122.28 255.093C122.109 255.141 121.596 255.322 121.141 255.494C120.685 255.667 119.8 255.999 119.174 256.233C118.548 256.467 118.035 256.81 118.035 256.995C118.035 257.18 117.63 257.46 117.135 257.617C116.02 257.971 115.718 258.219 112.531 261.407C109.435 264.504 108.925 265.1 108.925 265.623C108.925 265.845 108.629 266.322 108.266 266.685C107.903 267.047 107.572 267.573 107.53 267.854C107.487 268.134 107.315 268.582 107.148 268.85C106.785 269.431 107.625 271.479 108.506 272.162C108.928 272.488 111.651 272.662 116.848 272.694C125.925 272.749 126.252 272.794 127.423 274.136C128.217 275.047 128.321 275.65 128.321 279.339C128.321 283.028 128.217 283.631 127.423 284.542C126.252 285.885 125.925 285.929 116.848 285.985C111.651 286.016 108.928 286.19 108.506 286.517C107.625 287.199 106.785 289.248 107.148 289.829C107.315 290.096 107.487 290.545 107.53 290.825C107.572 291.105 107.903 291.631 108.266 291.993C108.629 292.356 108.925 292.834 108.925 293.055C108.925 293.578 109.435 294.174 112.531 297.271C115.718 300.459 116.02 300.708 117.135 301.062C117.63 301.219 118.035 301.499 118.035 301.683C118.035 302.078 121.154 303.34 121.802 303.206C121.938 303.178 122.357 303.411 122.734 303.724C123.11 304.036 123.418 304.185 123.418 304.054C123.418 303.923 124.23 304.061 125.222 304.359C127.062 304.913 134.262 304.952 136.255 304.419C136.825 304.267 137.477 304.101 137.705 304.051C137.933 304 139.398 303.359 140.96 302.625C142.524 301.892 143.968 301.292 144.17 301.292C144.372 301.292 144.537 301.105 144.537 300.877C144.537 300.65 144.722 300.463 144.947 300.463C145.963 300.463 150.794 295.658 151.95 293.499C152.43 292.601 152.528 292.593 164.028 292.593C174.572 292.593 175.645 292.657 175.892 293.3C176.484 294.845 182.057 300.463 182.996 300.463C183.215 300.463 183.456 300.603 183.532 300.774C183.655 301.05 188.167 303.401 188.949 303.596C189.12 303.638 189.307 303.711 189.363 303.757C189.467 303.84 189.664 303.893 191.952 304.45C193.56 304.841 201.109 304.841 202.718 304.45C203.401 304.283 204.147 304.105 204.374 304.054C204.602 304.002 205.022 303.815 205.306 303.637C205.591 303.459 205.824 303.441 205.824 303.596C205.824 303.751 206.057 303.695 206.341 303.47C206.626 303.246 207.358 302.943 207.969 302.798C208.579 302.652 209.325 302.293 209.625 302C209.926 301.707 210.824 301.067 211.621 300.577C213.26 299.571 217.833 295.248 217.833 294.707C217.833 294.512 218.114 294.118 218.459 293.832C219.208 293.21 220.731 289.883 220.731 288.869C220.731 288.473 220.357 287.673 219.899 287.09L219.066 286.032L211.251 285.985C202.068 285.929 201.749 285.886 200.577 284.542C199.783 283.631 199.679 283.028 199.679 279.339C199.679 275.65 199.783 275.047 200.577 274.136C201.749 272.792 202.068 272.749 211.251 272.694L219.066 272.647L219.899 271.588C220.357 271.006 220.731 270.205 220.731 269.809C220.731 268.795 219.208 265.468 218.459 264.846C218.114 264.561 217.833 264.167 217.833 263.972C217.833 263.43 213.26 259.108 211.621 258.101C210.824 257.611 209.926 256.971 209.625 256.678C209.325 256.385 208.579 256.026 207.969 255.881C207.358 255.735 206.597 255.409 206.278 255.155C205.958 254.902 205.632 254.741 205.553 254.798C205.474 254.855 205.363 254.888 205.306 254.87C205.18 254.831 204.364 254.629 202.718 254.229C201.109 253.838 193.56 253.838 191.952 254.229C189.664 254.785 189.467 254.838 189.363 254.921C189.307 254.967 189.12 255.04 188.949 255.083C188.167 255.277 183.655 257.628 183.532 257.905C183.456 258.076 183.215 258.215 182.996 258.215C182.057 258.215 176.484 263.834 175.892 265.378C175.645 266.021 174.572 266.085 164.028 266.085C152.528 266.085 152.43 266.077 151.95 265.179C150.794 263.02 145.963 258.215 144.947 258.215C144.722 258.215 144.537 258.029 144.537 257.801C144.537 257.573 144.372 257.387 144.17 257.387C143.968 257.387 142.524 256.787 140.96 256.053C139.398 255.319 137.933 254.678 137.705 254.627C137.477 254.577 136.825 254.412 136.255 254.26C134.652 253.834 127.049 253.724 126.01 254.112ZM135.461 260.631C140.381 261.916 145.364 265.75 147.464 269.867C148.95 272.782 148.547 272.712 163.912 272.712C172.277 272.712 178.023 272.55 178.489 272.3C178.912 272.073 179.932 270.78 180.754 269.426C184.786 262.788 192.658 259.033 200.119 260.188C203.675 260.738 208.348 262.945 210.357 265.023L211.783 266.499L206.63 266.508C202.344 266.516 201.162 266.659 199.612 267.361C197.11 268.494 195.564 270.016 194.388 272.505C193.535 274.308 193.409 275.192 193.409 279.339C193.409 283.486 193.535 284.37 194.388 286.173C195.564 288.662 197.11 290.184 199.612 291.317C201.162 292.019 202.344 292.163 206.63 292.17L211.783 292.179L210.357 293.655C208.348 295.733 203.675 297.94 200.119 298.49C192.658 299.646 184.786 295.89 180.754 289.253C179.932 287.898 178.912 286.605 178.489 286.378C178.023 286.129 172.277 285.966 163.912 285.966C148.45 285.966 148.962 285.873 147.379 288.978C146.898 289.921 145.456 291.737 144.175 293.014C139.834 297.341 133.722 299.395 127.881 298.49C124.325 297.94 119.652 295.733 117.643 293.655L116.216 292.179L121.37 292.17C125.462 292.163 126.865 292.005 128.181 291.406C130.672 290.27 132.346 288.669 133.532 286.289C134.494 284.357 134.599 283.676 134.599 279.339C134.599 275.003 134.494 274.322 133.532 272.389C132.346 270.009 130.672 268.409 128.181 267.272C126.865 266.673 125.462 266.515 121.37 266.508L116.216 266.499L117.643 265.023C119.311 263.298 124.062 260.842 126.731 260.324C129.65 259.758 132.501 259.858 135.461 260.631Z" fill="#20222B"/>
<path fill-rule="evenodd" clip-rule="evenodd" d="M111.082 113.074C109.897 113.665 108.284 114.899 107.499 115.817C104.965 118.778 104.784 119.909 104.784 132.788V144.311H95.073C84.7177 144.311 82.2257 144.612 78.9692 146.253C73.0791 149.22 69.9999 154.675 69.9999 162.139V165.734L67.9575 165.976C64.1259 166.43 60.5386 169.154 58.8511 172.891C58.1558 174.43 58.0076 175.628 58.0001 179.776C57.9902 185.262 58.4751 187.351 60.3208 189.771L61.3916 191.176L60.5452 192.078C58.6022 194.148 58.0097 196.395 58.0001 201.729C57.9902 207.222 58.4747 209.302 60.3311 211.737C61.8513 213.73 64.7789 215.469 67.5977 216.051L69.9999 216.547V247.134V277.72H71.4582H73.9427H75.919C75.919 277.72 76.0871 264.325 76.2047 247.239L76.4184 216.174L83.7288 216.061L91.0393 215.949L91.1917 223.517C91.3636 232.045 91.7184 233.39 94.661 236.647C98.4575 240.85 100.824 241.35 115.965 241.138C129.43 240.951 130.131 240.793 133.802 237.122C137.171 233.752 137.59 232.307 137.812 223.319L137.992 215.967H164.001H190.009L190.161 223.526C190.333 232.045 190.689 233.39 193.63 236.647C197.427 240.85 199.793 241.35 214.934 241.138C228.399 240.951 229.101 240.793 232.771 237.122C236.141 233.752 236.56 232.308 236.781 223.31L236.962 215.949L244.272 216.061L251.582 216.174L251.694 258.629C251.768 286.732 251.659 302.046 251.372 303.93C251.133 305.494 250.445 307.781 249.843 309.01C248.465 311.826 245.048 315.086 241.955 316.536L239.573 317.652H164.207H88.8413L86.4457 316.685C83.3404 315.431 79.6181 311.996 78.1775 309.053C76.6722 305.978 76.2179 302.666 76.2146 294.741C76.2126 291.024 75.919 277.72 75.919 277.72H73.9427H71.4582H69.9999C69.9999 277.72 69.9945 292.894 70.0877 297.858C70.2483 306.43 70.3121 307.024 71.354 309.683C73.7541 315.811 78.3249 320.401 84.584 322.968L86.7708 323.865L162.758 323.975C215.989 324.052 239.392 323.951 240.906 323.638C246.338 322.513 252.521 317.726 255.25 312.532C258.096 307.114 257.987 309.181 257.994 260.473L258 216.547L260.402 216.051C264.672 215.169 268.166 212.14 269.529 208.139C270.191 206.197 270.114 197.519 269.418 195.567C269.113 194.712 268.367 193.362 267.76 192.565L266.655 191.117L267.852 189.356C269.683 186.663 270.01 185.202 270 179.767C269.992 175.628 269.844 174.43 269.149 172.891C267.461 169.154 263.874 166.43 260.042 165.976L258 165.734V162.358C258 154.759 254.906 149.213 249.008 146.241C245.776 144.613 243.266 144.311 232.927 144.311H223.216V132.866C223.216 125.557 223.047 120.855 222.748 119.858C221.996 117.346 219.537 114.459 217.04 113.154C214.816 111.992 214.762 111.986 207.976 112.098L201.275 112.211V113.313V115.939V117.806C201.275 117.806 204.338 118.217 207.142 118.218C212.791 118.218 214.362 118.686 215.94 120.835C216.758 121.95 216.797 122.528 216.797 133.261V144.518L214.934 144.657C213.909 144.733 211.533 144.669 209.654 144.516L206.238 144.237V137.44C206.238 131.195 206.17 130.575 205.41 129.815C204.593 128.997 204.03 128.986 164 128.986C123.97 128.986 123.407 128.997 122.59 129.815C121.827 130.578 121.762 131.195 121.762 137.684V144.726L118.76 144.722C117.108 144.72 114.779 144.601 113.584 144.457L111.41 144.196V132.895V121.594L112.471 120.332C113.056 119.638 114.22 118.879 115.059 118.646C116.047 118.372 129.818 118.216 154.062 118.206C194.964 118.189 201.275 117.806 201.275 117.806V115.939V112.211L152.756 112.106L113.237 112L111.082 113.074ZM200.026 139.755V144.311H164H127.973V139.755V135.199H164H200.026V139.755ZM244.808 151.419C245.69 151.684 247.139 152.523 248.029 153.284C250.443 155.351 251.443 157.773 251.693 162.157L251.903 165.85H164.058H76.2113V163.385C76.2113 157.602 77.9998 154.098 81.9822 152.078L84.2278 150.939H163.715C222.841 150.939 243.614 151.062 244.808 151.419ZM260.974 173.023C262.975 174.382 263.534 175.715 263.696 179.518C263.872 183.62 263.228 185.333 260.941 186.862L259.534 187.802L164.249 187.801C74.3524 187.801 68.8843 187.76 67.5447 187.076C64.9806 185.769 64.4091 184.517 64.412 180.213C64.4149 176.156 64.9951 174.497 66.8386 173.271C68.2867 172.309 76.6623 172.226 170.833 172.248C256.217 172.269 259.909 172.301 260.974 173.023ZM91.1188 201.885V209.754L80.0417 209.753C67.8582 209.753 67.0867 209.616 65.2671 207.135C64.5462 206.152 64.41 205.359 64.412 202.165C64.4149 198.108 64.9951 196.449 66.8386 195.223C67.6954 194.654 72.8261 194.363 86.6673 194.1L91.1188 194.015V201.885ZM131.7 211.591C131.7 223.003 131.546 229.576 131.26 230.334C131.018 230.975 130.319 232.035 129.707 232.69C127.626 234.915 126.937 235.02 114.387 235.02C103.136 235.02 102.798 234.996 101.041 234.066C99.8082 233.414 98.9357 232.542 98.284 231.309C97.3315 229.507 97.3303 229.485 97.3303 211.76V194.015H114.515H131.7V211.591ZM190.088 201.885V209.754H164H137.912V201.885V194.015H164H190.088V201.885ZM230.67 211.591C230.67 223.003 230.515 229.576 230.229 230.334C229.987 230.975 229.288 232.035 228.676 232.69C226.596 234.915 225.907 235.02 213.356 235.02C202.105 235.02 201.767 234.996 200.01 234.066C198.778 233.414 197.905 232.542 197.253 231.309C196.301 229.507 196.3 229.485 196.3 211.76V194.015H213.485H230.67V211.591ZM260.734 194.926C262.784 196.049 263.509 197.551 263.715 201.101C263.931 204.844 263.416 206.686 261.691 208.34L260.432 209.547L248.656 209.669L236.881 209.791V201.878V193.966L248.165 194.094C257.841 194.204 259.632 194.322 260.734 194.926ZM102.571 205.956C101.969 206.62 101.885 208.062 101.885 217.76C101.885 228.255 101.927 228.849 102.714 229.636C103.5 230.422 104.094 230.464 114.515 230.464C124.937 230.464 125.531 230.422 126.317 229.636C127.103 228.849 127.145 228.255 127.145 217.831C127.145 207.407 127.103 206.813 126.317 206.027C125.53 205.239 124.937 205.198 114.372 205.198C104.129 205.198 103.202 205.258 102.571 205.956ZM201.54 205.956C200.938 206.62 200.855 208.062 200.855 217.76C200.855 228.255 200.896 228.849 201.683 229.636C202.469 230.422 203.063 230.464 213.485 230.464C223.906 230.464 224.5 230.422 225.286 229.636C226.073 228.849 226.115 228.255 226.115 217.831C226.115 207.407 226.073 206.813 225.286 206.027C224.499 205.239 223.906 205.198 213.342 205.198C203.098 205.198 202.171 205.258 201.54 205.956ZM120.934 217.831V224.251H114.515H108.097V217.831V211.411H114.515H120.934V217.831ZM219.903 217.831V224.251H213.485H207.066V217.831V211.411H213.485H219.903V217.831ZM126.633 254.06C119.36 255.384 112.826 259.659 109.048 265.567C107.213 268.437 106.92 270.119 108.021 271.479C108.846 272.499 108.899 272.506 117.621 272.712L126.391 272.919L127.389 274.081C128.299 275.14 128.388 275.608 128.388 279.339C128.388 283.07 128.299 283.538 127.389 284.597L126.391 285.759L117.621 285.966C108.899 286.172 108.846 286.179 108.021 287.199C106.92 288.56 107.213 290.242 109.048 293.111C112.205 298.048 117.569 302.051 123.418 303.835C127.395 305.047 133.585 305.134 137.291 304.029C142.85 302.371 148.079 298.734 151.391 294.222L152.89 292.179H164.015H175.141L176.373 293.971C178.26 296.714 182.174 300.119 185.356 301.786C189.685 304.053 192.553 304.769 197.335 304.776C204.741 304.786 210.786 302.17 215.912 296.735C219.323 293.119 221.083 289.825 220.497 288.157C219.808 286.199 218.752 285.979 210.036 285.973L202.033 285.966L200.823 284.756C199.644 283.576 199.612 283.435 199.612 279.339C199.612 275.243 199.644 275.102 200.823 273.923L202.033 272.712L210.036 272.706C218.752 272.699 219.808 272.479 220.497 270.521C221.083 268.853 219.323 265.559 215.912 261.943C210.786 256.508 204.741 253.892 197.335 253.903C192.553 253.909 189.685 254.625 185.356 256.893C182.174 258.559 178.26 261.964 176.373 264.707L175.141 266.499H164.015H152.89L151.391 264.456C148.124 260.005 142.826 256.292 137.511 254.73C134.737 253.915 129.28 253.579 126.633 254.06ZM135.461 260.631C140.381 261.916 145.364 265.75 147.464 269.867C148.95 272.782 148.547 272.712 163.912 272.712C172.277 272.712 178.023 272.55 178.489 272.3C178.912 272.073 179.932 270.78 180.754 269.426C184.786 262.788 192.658 259.033 200.119 260.188C203.675 260.738 208.348 262.945 210.357 265.023L211.783 266.499L206.63 266.508C202.344 266.516 201.162 266.659 199.612 267.361C197.11 268.494 195.564 270.016 194.388 272.505C193.535 274.308 193.409 275.192 193.409 279.339C193.409 283.486 193.535 284.37 194.388 286.173C195.564 288.662 197.11 290.184 199.612 291.317C201.162 292.019 202.344 292.163 206.63 292.17L211.783 292.179L210.357 293.655C208.348 295.733 203.675 297.94 200.119 298.49C192.658 299.646 184.786 295.89 180.754 289.253C179.932 287.898 178.912 286.605 178.489 286.378C178.023 286.129 172.277 285.966 163.912 285.966C148.45 285.966 148.962 285.873 147.379 288.978C146.898 289.921 145.456 291.737 144.175 293.014C139.834 297.341 133.722 299.395 127.881 298.49C124.325 297.94 119.652 295.733 117.643 293.655L116.216 292.179L121.37 292.17C125.462 292.163 126.865 292.005 128.181 291.406C130.672 290.27 132.346 288.669 133.532 286.289C134.494 284.357 134.599 283.676 134.599 279.339C134.599 275.003 134.494 274.322 133.532 272.389C132.346 270.009 130.672 268.409 128.181 267.272C126.865 266.673 125.462 266.515 121.37 266.508L116.216 266.499L117.643 265.023C119.311 263.298 124.062 260.842 126.731 260.324C129.65 259.758 132.501 259.858 135.461 260.631Z" fill="#20222B"/>
<path d="M31.3241 95.6093C22.3593 95.6093 13.0463 99.2648 13.0463 103.791C13.0463 107.969 21.0537 111.972 31.6722 111.972C37.8518 111.972 49.0796 109.013 49.0796 103.791C49.1667 99.1778 40.463 95.6093 31.3241 95.6093ZM31.4111 108.752C25.0574 108.752 20.3574 106.141 20.3574 103.356C20.3574 100.396 26.1018 97.9593 30.3667 97.9593C31.9333 94.3907 41.7685 99.7 41.7685 103.356C41.8556 106.75 35.1537 108.752 31.4111 108.752Z" fill="#20222B"/>
<path d="M30.0185 99.787C20.0093 100.57 19.0518 105.793 29.4963 107.011L30.0185 99.787Z" fill="#20222B"/>
<path d="M32.8037 98.4815C32.1944 98.3075 31.8463 98.4815 31.8463 99.0038L31.237 106.924C32.1944 107.098 34.1963 106.837 35.4148 106.489L35.763 99.4389L32.8037 98.4815ZM34.3704 103.878C34.3704 104.313 34.0222 104.661 33.587 104.661H33.5C33.0648 104.661 32.7167 104.313 32.7167 103.878V102.92C32.7167 102.485 33.0648 102.137 33.5 102.137H33.587C34.0222 102.137 34.3704 102.485 34.3704 102.92V103.878Z" fill="#20222B"/>
<path d="M37.4167 100.309C41.1593 102.746 40.8111 104.661 37.1555 105.967L37.4167 100.309Z" fill="#20222B"/>
<path d="M43.5963 111.45C33.5 115.541 18.4426 113.8 13.0463 107.881V117.02C13.2204 118.674 14.0907 119.893 15.4833 120.85V116.933C15.4833 115.802 17.2241 115.802 17.2241 116.933V121.981L20.4444 123.374V119.283C20.4444 118.152 22.1852 118.239 22.1852 119.283V123.896L26.1889 124.68V120.241C26.1889 118.935 27.9296 118.935 27.9296 120.241V124.244C32.8037 121.024 38.113 116.498 43.5963 111.45Z" fill="#20222B"/>
<path d="M46.9037 97.8722C52.387 100.483 56.2167 110.057 52.6481 118.326L51.4296 116.672C50.5593 115.715 49.2537 116.846 50.2111 117.891L51.6907 119.893L49.0796 123.461L46.9037 120.937C45.8593 119.893 44.7278 121.198 45.6852 122.156L48.0352 124.68L44.8148 128.161L41.5944 125.463C40.637 124.506 39.5056 125.724 40.463 126.594L43.7704 129.467L40.3759 132.687L36.7204 129.554C35.6759 128.509 34.5444 129.641 35.5889 130.685L39.1574 133.818L35.6759 136.865C35.5889 135.907 35.2407 135.037 34.4574 134.341C33.6741 133.644 32.8907 133.209 32.0204 133.383C30.8019 133.644 30.1926 133.383 29.6704 132.861C28.8 131.73 29.3222 131.294 28.3648 130.076C27.5815 129.031 26.6241 128.77 25.8407 128.857H24.5352L32.8037 122.765L38.6352 118.152C45.5982 111.798 56.7389 104.574 46.9037 97.8722Z" fill="#20222B"/>
<path d="M33.413 135.646C32.6296 134.95 31.9333 135.037 31.063 135.124C30.1056 135.211 29.1482 134.689 28.6259 134.08C27.2333 132.6 28.0167 132.165 27.1463 131.033C26.1889 129.815 24.6222 131.12 22.7944 129.989L20.7056 131.381C19.8352 132.078 19.6611 133.122 20.3574 133.819L28.713 140.52C29.4093 140.956 30.1056 141.13 30.8019 140.607L34.3704 137.822C33.8482 137.213 34.1093 136.343 33.413 135.646ZM29.3222 137.909C29.0611 138.257 28.5389 138.344 28.1907 137.996L24.013 134.689C23.6648 134.428 23.5778 133.906 23.9259 133.557C24.2741 133.209 24.7093 133.122 25.0574 133.47L29.2352 136.778C29.4963 137.126 29.5833 137.648 29.3222 137.909Z" fill="#20222B"/>
<path fill-rule="evenodd" clip-rule="evenodd" d="M133.942 69.7551L123.347 80.3652C121.538 82.005 120.553 81.9175 118.842 80.1213L75.0649 36.3394C73.673 34.6982 73.6174 33.7646 75.0649 32.071L85.5373 21.3389C86.9832 20.1439 87.7677 20.2047 89.1295 21.3389L91.5616 23.768L85.3218 30.0197C85.0366 30.3055 85.039 30.7711 85.3243 31.0568C85.6097 31.3425 86.0746 31.3447 86.3599 31.0589L92.6009 24.8061L94.6441 26.8468L91.5584 29.9384C91.2732 30.2242 91.2771 30.6914 91.5625 30.9771C91.8479 31.2628 92.3144 31.2666 92.5997 30.9808L95.6859 27.8887L95.0962 27.2983L100.836 33.0316L97.7666 36.1072C97.4814 36.393 97.4821 36.857 97.7675 37.1427C98.0529 37.4284 98.5161 37.4289 98.8014 37.1431L101.872 34.0671L101.151 33.3458L103.948 36.139L100.789 39.3038C100.503 39.5896 100.504 40.0536 100.79 40.3393C101.075 40.625 101.538 40.6256 101.824 40.3397L104.983 37.174L104.699 36.889L107.021 39.2084L100.787 45.4539C100.502 45.7397 100.506 46.2069 100.791 46.4926C101.077 46.7783 101.543 46.7821 101.828 46.4963L108.063 40.2496L110.139 42.3227L107.058 45.4094C106.773 45.6953 106.777 46.1624 107.062 46.4481C107.347 46.7338 107.814 46.7376 108.099 46.4518L111.18 43.3647L110.424 42.6079L116.315 48.491L110.073 54.7446C109.788 55.0304 109.792 55.4983 110.078 55.784C110.363 56.0697 110.83 56.0743 111.116 55.7884L117.358 49.5342L116.911 49.0864L119.401 51.5739L116.279 54.7023C115.994 54.9881 115.994 55.4514 116.279 55.7371C116.564 56.0228 117.027 56.0227 117.312 55.7369L120.435 52.6081L119.738 51.9103L122.511 54.6795L119.318 57.8787C119.032 58.1646 119.032 58.6279 119.318 58.9136C119.603 59.1993 120.066 59.1992 120.351 58.9134L123.544 55.7141L122.563 54.7323L125.62 57.7853L119.304 64.1138C119.019 64.3996 119.019 64.8629 119.304 65.1486C119.589 65.4343 120.052 65.4342 120.337 65.1484L126.655 58.8187L133.942 66.0965C135.214 67.4419 135.485 68.197 133.942 69.7551ZM113.233 45.4149L114.258 46.4412L111.109 49.5964C110.826 49.8799 110.367 49.88 110.084 49.5966C109.801 49.3132 109.801 48.8536 110.084 48.5701L113.233 45.4149ZM98.7905 30.999L97.7493 29.9566L91.5195 36.1983C91.2342 36.4841 91.2382 36.9513 91.5236 37.237C91.8089 37.5227 92.2754 37.5265 92.5607 37.2407L98.7905 30.999ZM124.504 74.9382C122.487 74.9382 120.851 73.3002 120.851 71.2796C120.851 69.259 122.487 67.6209 124.504 67.6209C126.522 67.6209 128.157 69.259 128.157 71.2796C128.157 73.3002 126.522 74.9382 124.504 74.9382Z" fill="#20222B"/>
<g clip-path="url(#clip0_128_1374)">
<path d="M257.326 39.1704L255.593 37.437L252.896 40.037C251.837 41.0963 250.681 39.7481 251.644 38.7852L254.244 36.1852L251.933 34.1629L250.393 36.0889C249.622 36.9555 248.274 35.9926 249.141 34.837L250.393 33.1037L247.696 31.4666L246.733 33.5852C246.156 34.7407 244.519 34.0666 245.193 32.7185L246.059 30.7926L243.17 29.7333L242.496 32.0444C242.111 33.3926 240.474 32.9111 240.763 31.4666L241.341 29.3481L238.356 28.7704L238.067 30.8889C237.97 32.4296 236.141 32.1407 236.237 30.7926L236.43 28.5778H233.348L233.444 30.8889C233.541 32.3333 231.711 32.4296 231.615 30.9852L231.519 28.7704L228.341 29.3481L228.822 31.2741C229.304 32.9111 227.474 33.3926 227.089 31.8518L226.511 29.8296L223.526 30.9852L224.489 32.9111C225.067 34.1629 223.526 34.9333 222.948 33.7778L221.985 31.7555L219.289 33.2963L220.444 34.7407C221.407 35.8963 219.963 36.9555 219 35.8L217.748 34.1629L215.437 36.1852L218.037 38.7852C219 39.7481 217.941 41.0963 216.785 40.037L214.185 37.437L212.163 39.7481L213.896 41C214.956 41.7704 214.089 43.2148 212.933 42.4444L211.104 41.1926L209.563 43.8889L211.585 44.8518C212.741 45.7185 212.259 47.1629 210.815 46.6815L208.696 45.7185L207.637 48.6074L209.659 49.1852C211.007 49.6666 210.815 51.3037 209.178 50.9185L207.156 50.437L206.674 53.5185L208.985 53.7111C210.333 53.9037 210.333 55.5407 208.889 55.5407L206.385 55.3481V58.4296L208.889 58.237C210.044 58.1407 210.333 59.7778 209.178 60.0666L206.77 60.2592L207.252 63.3407L209.37 62.7629C210.622 62.4741 211.296 64.0148 210.044 64.4963L207.733 65.0741L208.793 68.0592L210.815 67.0963C211.97 66.6148 212.644 68.0592 211.778 68.637L209.563 69.6963L211.104 72.3926L213.03 71.0444C213.993 70.3704 215.148 71.5259 214.185 72.4889L212.163 73.9333L214.185 76.3407L216.881 73.6444C217.748 72.8741 219.096 73.9333 218.23 74.8963L215.437 77.5926L216.978 79.1333C217.748 79.8074 218.807 79.8074 219.674 79.037L257.037 41.6741C257.711 40.8074 258 39.8444 257.326 39.1704ZM219.674 62.4741C214.185 50.0518 226.607 35.8963 240.378 41.6741L219.674 62.4741Z" fill="#20222B"/>
</g>
<path d="M305.042 128.417L305.851 125.295L288.426 120.782L287.605 123.949C286.547 128.035 287.479 130.53 290.324 131.267L299.107 133.518C301.968 134.259 303.972 132.549 305.042 128.417ZM306.422 123.091L314.971 90.0826L297.546 85.5693L296.524 89.5175C300.99 91.2133 302.686 97.1149 300.897 104.024C299.107 110.934 294.759 115.27 290.025 114.607L288.997 118.578L306.422 123.091ZM315.542 87.879L316.351 84.7571C317.415 80.6483 316.487 78.2035 313.632 77.4394L304.867 75.1202C302.028 74.3603 299.996 76.112 298.932 80.2209L298.117 83.3657L315.542 87.879ZM299.418 103.641C300.857 98.0862 299.5 93.3257 295.887 91.9737L294.966 95.5316C297.284 96.4504 298.175 99.4982 297.248 103.079C296.314 106.683 294.061 108.892 291.589 108.57L290.661 112.151C294.476 112.722 297.973 109.219 299.418 103.641Z" fill="#20222B"/>
<defs>
<clipPath id="clip0_128_1374">
<rect width="52" height="52" fill="white" transform="translate(206 28)"/>
</clipPath>
</defs>
</svg>
